<svg width="1498" height="1692" viewBox="0 0 1498 1692" fill="none" xmlns="http://www.w3.org/2000/svg">
<mask id="mask0_104_379" style="mask-type:luminance" maskUnits="userSpaceOnUse" x="0" y="0" width="1498" height="1692">
<path d="M11.0857 5.64757e-05L0 1682.04L1485.97 1691.83L1497.05 9.7935L11.0857 5.64757e-05Z" fill="white"/>
</mask>
<g mask="url(#mask0_104_379)">
<path d="M119.034 748.344C179.399 767.095 236.68 706.638 299.029 699.895C378.72 691.269 446.005 774.238 467.466 861.485C484.817 932.002 480.154 1012.11 443.533 1072.56C406.921 1133.01 334.892 1167.5 274.05 1142.69C211.759 1117.28 174.329 1040.27 111.674 1016.03C69.5023 999.698 19.7261 1011.81 -12.8716 1046.32C-20.0757 1053.95 -26.3679 1062.58 -31.6777 1071.95C-25.9706 1048.34 -17.071 1025.97 -4.21083 1006.15C27.1877 957.745 86.0091 929.401 135.525 950.713C169.486 965.328 194.353 999.825 228.137 1014.94C276.808 1036.7 338.538 1007.94 359.645 953.661C380.744 899.383 357.742 828.536 310.639 802.732C239.576 763.813 153.865 825.621 76.9913 805.173C30.3103 792.755 -6.73967 750.74 -29.0865 702.734C-51.4333 654.724 -61.2212 600.7 -70.7597 547.494L-80.8388 389.686C-51.8837 487.929 -11.3597 581.774 39.3469 667.945C59.5182 702.228 83.928 737.436 119.034 748.339L119.034 748.344Z" fill="#DDA25D"/>
<path d="M-70.0618 963.485C-12.0009 914.232 68.3736 900.852 136.395 929.111C165.308 941.123 192.692 960.257 223.419 962.777C254.146 965.297 289.989 941.858 288.799 907.009C288.093 886.347 274.251 868.535 257.776 859.624C241.302 850.712 222.534 849.164 204.267 848.764C152.325 847.625 100.195 854.555 48.5059 848.732C-3.18332 842.908 -56.4046 822.116 -89.1134 776.488L-70.0619 963.49L-70.0618 963.485Z" fill="#BC6C25"/>
<path d="M-62.9237 1276.61C-58.6801 1233.78 -54.1624 1189.88 -36.7817 1151.51C-19.4009 1113.15 13.8938 1080.93 51.9521 1080.47C99.9812 1079.88 136.636 1126.62 166.301 1169.33C195.966 1212.03 232.702 1258.73 280.728 1258C312.923 1257.51 341.382 1235.19 372.35 1225.16C403.317 1215.12 445.751 1225.55 451.791 1261.34C456.647 1290.12 434.304 1315.75 411.305 1329.25C333.088 1375.13 233.041 1344.18 166.974 1278.44C147.248 1258.81 129.686 1236.35 108.604 1218.61C87.5224 1200.88 61.6793 1187.91 35.551 1191.21C-12.6763 1197.3 -42.8572 1254.97 -51.5972 1309L-62.9237 1276.61Z" fill="#BC6C25"/>
<path d="M221.709 1846.62C206.172 1806.59 191.987 1764.62 191.721 1720.88C191.451 1677.14 207.682 1630.87 240.94 1608.53C317.292 1557.23 423.719 1655.76 499.907 1604.17C523.468 1588.21 539.403 1558.65 541.157 1527.65C542.911 1496.65 530.43 1465.09 508.852 1445.95C498.827 1437.06 485.581 1427.66 486.529 1413.27C487.217 1402.85 495.818 1395.07 504.694 1392.19C529.446 1384.17 555.504 1405.55 565.938 1432.16C576.372 1458.77 575.327 1489.07 574.973 1518.2C574.619 1547.33 575.545 1578.1 589.091 1602.85C602.641 1627.59 633.151 1642.73 655.074 1627.43C697.183 1598.04 663.435 1504.41 707.146 1478.19C731.195 1463.76 762.675 1486.36 769.799 1516.07C776.923 1545.77 765.952 1577.44 750.65 1602.92C707.222 1675.28 625.534 1715.56 549.236 1702.25C509.163 1695.27 471.811 1675.04 432.152 1665.52C392.492 1656 346.308 1659.62 318.235 1692.8C283.731 1733.59 291.553 1802.23 318.521 1849.64L221.705 1846.61L221.709 1846.62Z" fill="#5F6C37"/>
<path d="M101.731 1294.47C115.222 1307.83 126.185 1324.16 139.399 1337.88C175.588 1375.44 225.554 1390.45 274.004 1399.64C322.462 1408.82 372.377 1413.73 417.387 1435.98C448.652 1451.44 480.059 1483.44 474.741 1521.62C469.606 1558.46 430.282 1579.09 398.122 1571.1C365.971 1563.1 344.476 1531.28 320.994 1505.19C265.991 1444.06 129.736 1368.67 76.6193 1356.52C64.1634 1353.67 51.3856 1351.16 40.2265 1344.32C29.0595 1337.46 19.5666 1325.23 18.8398 1310.87C17.8202 1290.6 35.3519 1273.54 53.2461 1272.07C71.1323 1270.61 88.2394 1281.12 101.735 1294.47L101.731 1294.47Z" fill="#BC6C25"/>
<path d="M106.457 58.0866C152.329 132.406 133.215 226.847 120.58 316.177C107.941 405.511 91.0057 499.75 120.138 584.033C135.683 629.01 169.501 671.373 212.543 672.949C245.864 674.175 275.797 651.056 301.029 626.6C326.265 602.153 350.863 574.501 382.672 563.267C426.49 547.792 473.81 566.942 514.517 590.685C543.099 607.358 571.146 626.684 602.661 634.246C634.184 641.811 670.986 634.9 691.189 606.711C711.935 577.769 708.798 533.196 689.367 503.195C669.944 473.195 637.51 456.442 604.827 450.55C572.151 444.659 538.761 448.397 505.82 452.146C444.339 459.149 378.89 467.944 331.269 512.124C313.726 528.393 299.531 548.751 282.39 565.544C265.253 582.337 243.649 595.873 220.957 594.087C181.543 590.98 155.827 542.064 156.787 497.803C158.311 427.414 215.452 364.297 278.295 363.591C310.259 363.235 344.144 376.484 373.047 361.115C401.726 345.871 414.372 307.631 417.955 272.31C428.111 172.201 383.417 67.7083 307.45 13.9639L99.0942 15.1314L106.457 58.0866ZM352.03 183.754C357.713 190.755 359.579 200.547 361.112 209.856C364.108 228.024 366.649 246.937 362.396 264.812C361.41 268.945 360.003 273.093 357.409 276.236C354.815 279.384 350.816 281.356 347.117 280.317C343.966 279.439 341.561 276.63 339.581 273.752C333.485 264.894 321.363 228.617 324.39 194.82C324.848 189.7 326.235 184.382 329.508 180.763C335.524 174.107 346.346 176.757 352.03 183.759L352.03 183.754Z" fill="#5F6C37"/>
<path d="M499.208 13.7829C488.138 60.3631 476.998 109.039 485.767 156.201C494.536 203.363 529.91 247.976 572.676 246.006C597.588 244.858 623.162 228.709 646.187 239.423C669.616 250.327 677.343 286.742 666.285 312.47C655.231 338.198 630.646 353.593 605.855 359.664C581.059 365.734 555.389 364.079 530.029 364.887C444.562 367.619 274.321 426.93 274.321 426.93C254.803 435.81 235.383 449.038 226.034 470.28C216.685 491.522 221.797 521.968 241.014 531.573C257.005 539.566 276.125 530.715 288.851 517.16C301.577 503.606 310.102 485.863 321.45 470.836C351.974 430.413 400.463 412.851 447.317 407.591C494.175 402.332 541.528 407.447 588.453 403.062C635.378 398.674 684.101 383.073 716.362 344.397C748.623 305.726 757.694 239.461 726.272 200.028C692.076 157.114 629.006 162.126 589.448 125.52C560.343 98.5835 549.308 49.5609 563.491 10.1965L499.196 13.7783L499.208 13.7829Z" fill="#BC6C25"/>
<path d="M1165.67 1289.6C1179.94 1442.2 1208.28 1592.86 1244.15 1740.8C1249.06 1761.03 1254.2 1781.89 1251.84 1802.72C1249.49 1823.55 1237.57 1844.56 1219.46 1849.13C1200.52 1853.9 1181.19 1839.08 1171.82 1819.87C1162.46 1800.68 1160.76 1778.03 1159.17 1756.16C1150.83 1640.86 1140.2 1525.78 1127.28 1411.03C1123.55 1377.93 1115.63 1338.84 1088.03 1327.14C1058.35 1314.57 1026.02 1345.65 1018.03 1380.39C1010.03 1415.14 1018.25 1451.56 1022.53 1487.11C1028.21 1534.16 1026.89 1582.29 1018.64 1628.87C1014.35 1653.09 1007.91 1677.55 994.442 1696.99C980.965 1716.44 959.159 1730.02 937.597 1726.3C908.856 1721.34 890.592 1689.42 878.508 1659.5C859.116 1611.44 845.769 1560.24 839.008 1507.94C834.592 1473.8 832.916 1438.93 823.794 1406.01C814.668 1373.09 796.6 1341.36 768.778 1327.28C740.959 1313.21 702.893 1322.79 689.337 1353.73C679.707 1375.72 683.9 1401.95 680.152 1426.11C676.4 1450.28 656.177 1475.97 636.281 1466.28C621.466 1459.06 617.731 1437.01 619.752 1418.88C620.638 1410.97 622.212 1403 623.369 1395.06C627.077 1369.62 616.414 1344.01 596.442 1331.65C588.959 1327.02 580.805 1324.6 572.905 1325.51C560.805 1326.92 549.715 1333.57 538.005 1337.3C526.295 1341.02 512.257 1341.15 503.601 1331.5C495.978 1322.99 494.93 1308.76 499.244 1297.65C503.558 1286.54 512.348 1278.31 521.929 1272.87C549.714 1257.06 586.178 1263.9 607.924 1288.98C632.098 1316.87 635.979 1359.11 642.358 1397.53C643.588 1404.94 645.894 1413.57 652.24 1415.87C661.342 1419.16 668.611 1406.6 670.474 1395.98C674.645 1372.12 669.324 1346.98 674.061 1323.26C688.919 1248.86 754.685 1259.68 787.951 1288.24C813.336 1310.03 831.692 1340.98 841.59 1375.27C851.484 1409.56 855.089 1445.7 860.682 1481.21C868.042 1527.93 878.931 1573.93 893.187 1618.55C900.03 1639.95 910.417 1663.86 930.065 1668.77C947.032 1673.01 964.556 1660.12 973.102 1642.97C981.639 1625.81 983.045 1605.38 983.3 1585.7C983.979 1533.57 977.969 1481.62 977.094 1429.5C976.228 1377.38 980.87 1323.75 1001.41 1277.05C1021.94 1230.35 1046.38 1188.16 1092.44 1188.46C1141.59 1188.79 1159.89 1227.8 1165.67 1289.6L1165.67 1289.6Z" fill="#DDA25D"/>
<path d="M806.038 1662.71C829.498 1665.81 846.38 1689.72 856.693 1713.76C867.006 1737.8 873.899 1764.51 889.927 1784.13C915.323 1815.21 962.353 1819.35 991.777 1793.1C1008.62 1778.07 1020.2 1754.7 1040.23 1746.06C1068.42 1733.88 1101.71 1760.56 1107.15 1794.13C1112.59 1827.7 1095.25 1862.22 1070.5 1881.77C1045.74 1901.32 1014.91 1908.26 984.823 1910.78C848.987 1922.17 677.299 1879.22 556.366 1805.8C607.388 1787.64 698.42 1733.84 740.685 1696.7C760.152 1679.58 781.576 1659.48 806.038 1662.71Z" fill="#BC6C25"/>
<path d="M525.332 702.509C587.642 750.939 623.575 839.605 615.387 924.742C611.23 967.952 597.316 1014.96 616.742 1052.41C636.892 1091.27 686.83 1099.42 722.68 1079.69C758.531 1059.96 782.167 1019.81 798.728 978.769C815.288 937.735 826.656 893.867 847.11 855.139C859.915 830.903 876.969 808.288 899.776 796.874C922.588 785.45 951.921 787.659 969.386 807.753C985.308 826.068 988.245 855.066 982.546 879.972C976.854 904.883 963.871 926.737 951.107 948.037C925.078 991.488 899.049 1034.93 873.02 1078.38C840.27 1133.04 803.526 1191.22 748.039 1211.58C692.653 1231.91 631.545 1208.71 582.785 1172.84C554.795 1152.24 527.931 1125.32 518.532 1089.04C506.604 1042.95 525.389 994.743 531.776 947.225C537.579 904.072 561.362 841.091 469.347 747.507C460.959 738.974 455.177 725.951 456.24 713.23C457.567 697.327 472.321 686.152 486.424 685.851C500.531 685.546 513.718 693.479 525.337 702.509L525.332 702.509Z" fill="#BC6C25"/>
<path d="M935.488 65.6823C946.25 97.1778 938.762 132.593 929.938 164.885C921.107 197.185 910.903 230.874 916.628 264.017C926.018 318.313 973.722 351.719 999.369 398.78C1033.21 460.868 1022.63 549.374 975.401 599.193C925.503 651.82 845.08 660.977 804.817 723.295C764.219 786.138 781.897 875.247 758.214 948.315C751.948 967.657 740.576 987.652 722.718 991.588C701.144 996.346 681.067 974.257 675.329 950.265C669.596 926.272 673.87 900.894 675.697 876.1C676.99 858.599 677.009 840.983 675.793 823.484C674.836 809.668 672.356 796.062 668.923 782.766C666.454 773.196 664.819 763.301 664.128 753.422C661.73 719.389 670.45 685.553 694.493 666.03C719.198 645.953 752.04 646.729 781.705 639.147C811.362 631.565 843.527 606.128 839.791 571.995C837.382 550.036 820.617 533.73 803.392 523.288C786.167 512.837 766.999 505.661 752.461 490.886C737.914 476.12 729.508 449.999 740.449 431.636C752.519 411.384 780.029 412.742 799.027 424.245C818.026 435.747 833.14 454.593 852.771 464.648C872.402 474.702 900.69 471.463 909 448.924C916.911 427.454 902.299 404.818 890.87 385.52C843.174 304.952 842.267 201.26 843.024 104.206C843.228 78.0866 845.15 47.9754 863.8 32.5623C887.926 12.6189 924.73 34.1959 935.492 65.6915L935.488 65.6823Z" fill="#DDA25D"/>
<path d="M1138.93 846.971C1158.77 855.2 1171.43 878.335 1175.16 901.911C1178.89 925.469 1175.19 949.66 1171.16 973.175C1164.43 1012.39 1154.46 1055.35 1124.98 1077.35C1096.66 1098.51 1059 1093.53 1027.49 1107.78C975.442 1131.31 952.371 1200.54 945.931 1263.55C939.483 1326.55 943.25 1392.78 919.936 1450.49C917.27 1457.1 912.9 1464.5 906.485 1464.23C898.576 1463.9 895.328 1452.77 894.229 1443.88C893.349 1436.76 892.526 1429.64 891.736 1422.49C875.835 1278.02 913.288 1131.81 997.039 1021.13C1009.68 1004.44 1020.47 986 1028.97 966.206C1041.27 937.523 1049.15 906.05 1065.95 880.448C1082.74 854.836 1112.51 836.02 1138.93 846.971Z" fill="#5F6C37"/>
<path d="M1534.39 926.929C1526.22 872.962 1517.81 818.141 1496.48 769.02C1475.16 719.895 1438.73 676.381 1391.91 662.68C1337.01 646.617 1273.91 672.295 1224.58 640.687C1191.05 619.21 1172.31 571.741 1180.53 529.089C1188.74 486.438 1223.25 452.021 1261.66 448.17C1298.52 444.479 1336.02 466.124 1371.72 455.06C1415.04 441.633 1436.39 386.962 1447.27 337.632C1472.68 222.398 1472.93 100.205 1447.99 -15.0734L1425.38 -14.8833C1431.75 89.4402 1437.63 197.759 1404.12 295.288C1393.53 326.093 1377.36 357.164 1350.68 370.619C1303.63 394.35 1249.95 353.471 1198.79 360.045C1154.4 365.753 1119.15 406.912 1099.46 452.336C1077.26 503.547 1070.19 563.845 1083.96 618.659C1097.72 673.474 1133.24 721.731 1180.03 742.733C1247.19 772.883 1326.79 745.917 1393.3 777.853C1463.9 811.754 1498.78 900.624 1523.23 982.917L1534.39 926.929Z" fill="#BC6C25"/>
<path d="M1528.06 686.56C1502.99 638.207 1454.73 606.427 1405.17 605.624C1383.74 605.277 1362.49 610.303 1341.06 610.881C1319.62 611.464 1296.77 606.838 1281.07 590.342C1264.88 573.335 1259.33 544.599 1267.76 521.451C1276.19 498.308 1298.04 482.311 1320.13 483.107C1343.54 483.949 1363.49 501.224 1383.74 514.525C1403.98 527.827 1430.21 537.398 1450.02 523.216C1466.3 511.561 1472.19 487.755 1472.86 465.981C1473.56 443.236 1470.05 420.596 1469.7 397.844C1469.34 375.092 1472.59 351.108 1484.95 333.144C1497.31 315.175 1520.81 305.638 1538.41 316.591L1528.06 686.56L1528.06 686.56Z" fill="#BC6C25"/>
<path d="M1248.72 11.6236L1043.65 12.1503C1003.73 32.4775 973.471 78.335 973.751 128.271C974.031 178.203 1009.05 227.73 1052.99 232.77C1090.02 237.032 1124.82 212.124 1161.96 211.785C1188.81 211.535 1214.46 224.061 1240.15 233.542C1265.83 243.023 1294.45 249.417 1318.89 237.338C1343.17 225.343 1358.49 196.675 1363.12 167.018C1368.95 129.62 1359.34 89.171 1337.58 59.6157C1315.83 30.07 1282.35 11.9906 1248.71 11.6235L1248.72 11.6236ZM1094.89 88.9661C1109.37 93.4722 1122.09 103.385 1134.49 113.123C1139.52 117.072 1144.76 121.296 1147.45 127.506C1150.15 133.716 1149.19 142.475 1143.83 145.559C1140.15 147.668 1135.7 146.573 1131.57 145.858C1116.75 143.266 1101.29 146.295 1088.27 154.345C1081.86 158.313 1075.77 163.564 1068.48 164.642C1058.01 166.18 1047.72 158.386 1041.76 148.357C1035.44 137.734 1033.39 123.96 1037.11 112.074C1046.4 82.4088 1081.9 84.925 1094.89 88.9707L1094.89 88.9661Z" fill="#5F6C37"/>
<path d="M1287.39 1829.12C1312.68 1739.81 1297.74 1642.27 1272.69 1552.97C1247.64 1463.66 1212.64 1377.55 1197.04 1285.5C1192.67 1259.73 1189.89 1232.88 1195.49 1207.39C1201.08 1181.9 1216.56 1157.82 1238.73 1150.04C1268.48 1139.59 1300.37 1161.03 1319.35 1188.93C1338.33 1216.83 1348.78 1250.92 1365.55 1280.58C1382.31 1310.25 1409.12 1336.98 1440.23 1335.58C1454.63 1334.94 1468.28 1328.32 1482.5 1325.63C1496.71 1322.94 1513.39 1325.4 1521.86 1338.58C1528.8 1349.37 1528.04 1364.89 1522.08 1376.43C1516.13 1387.97 1505.82 1395.93 1494.91 1401.03C1459.16 1417.72 1416.6 1405.74 1385.84 1379.31C1355.07 1352.89 1334.48 1314.03 1318.83 1274.06C1312.56 1258.03 1306.64 1241.14 1295.4 1229.09C1284.16 1217.05 1265.69 1211.48 1253.04 1221.63C1237.89 1233.78 1239.32 1260.07 1246.76 1279.3C1275.66 1353.96 1363.89 1386.98 1381.63 1465.99C1391.35 1509.3 1376.59 1554.17 1365.49 1597.09C1337.44 1705.53 1332.23 1821.42 1350.39 1932.44L1287.4 1829.12L1287.39 1829.12Z" fill="#BC6C25"/>
<path d="M1537.51 1176.83C1514.98 1200.3 1492.45 1223.78 1469.92 1247.26C1464 1253.44 1457.47 1259.93 1449.46 1260.83C1435.42 1262.41 1425.04 1246.66 1418.97 1232.26C1407.47 1204.99 1400.16 1175.62 1388.29 1148.55C1376.43 1121.48 1358.83 1095.87 1334.02 1084.71C1314.41 1075.89 1291.65 1076.67 1273.61 1064.29C1257.59 1053.29 1247.94 1033.7 1239.91 1014.54C1230.94 993.122 1222.96 970.617 1221.62 946.947C1220.29 923.277 1226.49 898.04 1242.08 882.176C1262.46 861.452 1294.4 861.361 1319.38 873.97C1344.37 886.574 1363.91 909.567 1382.4 932.388C1400.88 955.21 1419.49 978.893 1443.57 993.589C1469.91 1009.67 1502.2 1014.66 1523.46 1038.48C1541.58 1058.78 1548.02 1089.54 1546.3 1118.37C1544.57 1147.19 1535.64 1174.76 1526.81 1201.87L1537.5 1176.82L1537.51 1176.83Z" fill="#BC6C25"/>
<path d="M1047.84 573.356C1055 581.478 1052.91 594.815 1051.64 606.207C1049.28 627.118 1051.51 648.655 1058.04 668.379C1066.12 692.772 1080.58 714.142 1087.16 739.111C1093.74 764.07 1089.22 796.331 1068.52 807.801C1052.34 816.763 1032.54 809.482 1017.94 797.565C1003.33 785.656 991.755 769.485 977.076 757.714C959.901 743.947 938.688 736.886 917.656 737.49C900.99 737.966 890.218 717.262 899.385 701.488C899.606 701.105 899.84 700.726 900.081 700.352C911.773 682.15 935.432 683.391 954.586 677.408C978.034 670.092 997.665 648.699 1005.03 622.462C1008.8 609.021 1009.65 594.246 1016.31 582.336C1022.98 570.421 1039.05 563.4 1047.84 573.361L1047.84 573.356Z" fill="#BC6C25"/>
</g>
</svg>
