<svg width="1440" height="1255" viewBox="0 0 1440 1255" fill="none" xmlns="http://www.w3.org/2000/svg">
<mask id="mask0_193_713" style="mask-type:luminance" maskUnits="userSpaceOnUse" x="-28" y="0" width="1495" height="1254">
<path d="M-22.7462 0.317971L-27.4225 1228.96L1462.03 1253.88L1466.71 25.2382L-22.7462 0.317971Z" fill="white"/>
</mask>
<g mask="url(#mask0_193_713)">
<path d="M87.6296 483.956C148.233 498.4 205.442 454.832 267.938 450.64C347.818 445.276 415.608 506.807 437.463 570.923C455.132 622.744 450.763 681.327 414.273 725.133C377.79 768.94 305.694 793.33 244.587 774.443C182.026 755.102 144.197 698.292 81.275 679.796C38.9234 667.343 -10.9447 675.612 -43.5006 700.484C-50.6954 705.982 -56.9721 712.23 -62.2607 719.023C-56.6282 701.81 -47.7897 685.542 -34.9697 671.188C-3.66958 636.131 55.2066 616.086 104.941 632.276C139.053 643.378 164.122 668.924 198.057 680.392C246.947 696.9 308.738 676.582 329.695 637.105C350.645 597.628 327.308 545.498 279.975 526.05C208.566 496.716 122.853 540.934 45.6876 525.05C-1.17065 515.405 -38.4846 484.21 -61.0775 448.806C-83.6704 413.399 -93.6926 373.74 -103.461 334.682L-114.173 219.055C-84.7614 291.309 -43.7651 360.481 7.41257 424.159C27.7713 449.492 52.3839 475.554 87.6297 483.953L87.6296 483.956Z" fill="#DDA25D"/>
<path d="M-100.803 639.811C-42.8735 605.052 37.5292 596.365 105.727 617.493C134.714 626.473 162.2 640.56 192.967 642.733C223.734 644.905 259.522 628.46 258.196 603.371C257.411 588.497 243.486 575.519 226.961 568.914C210.436 562.31 191.643 560.977 173.357 560.475C121.359 559.048 69.2045 563.425 17.4416 558.631C-34.3212 553.837 -87.6751 538.254 -120.592 505.042L-100.803 639.815L-100.803 639.811Z" fill="#BC6C25"/>
<path d="M-93.2979 871.152C-89.2144 840.345 -84.8606 808.761 -67.609 781.322C-50.3574 753.882 -17.1514 731.058 20.945 731.17C69.0223 731.31 105.895 765.417 135.755 796.535C165.616 827.649 202.569 861.731 250.643 861.769C282.87 861.794 311.273 846.045 342.235 839.176C373.197 832.306 415.714 840.321 421.898 866.179C426.87 886.971 404.602 905.18 381.631 914.633C303.508 946.777 203.237 923.306 136.848 875.164C117.026 860.79 99.3589 844.396 78.187 831.373C57.0152 818.35 31.0952 808.7 4.95209 810.772C-43.3024 814.595 -73.2935 855.793 -81.8351 894.625L-93.2979 871.152Z" fill="#BC6C25"/>
<path d="M192.51 1291.36C176.794 1262.09 162.425 1231.42 161.991 1199.62C161.553 1167.82 177.633 1134.38 210.859 1118.54C287.137 1082.16 394.115 1155.03 470.228 1118.43C493.767 1107.11 509.614 1085.81 511.252 1063.3C512.89 1040.79 500.268 1017.7 478.581 1003.53C468.506 996.951 455.202 989.963 456.097 979.515C456.746 971.95 465.331 966.4 474.211 964.414C498.972 958.872 525.155 974.723 535.708 994.188C546.26 1013.65 545.33 1035.67 545.087 1056.83C544.844 1078 545.89 1100.38 559.552 1118.53C573.219 1136.67 603.837 1148.04 625.736 1137.17C667.801 1116.31 633.639 1047.86 677.32 1029.31C701.353 1019.11 732.971 1035.91 740.221 1057.59C747.47 1079.26 736.602 1102.15 721.374 1120.49C678.153 1172.57 596.486 1200.88 520.013 1190.31C479.849 1184.76 442.359 1169.61 402.599 1162.22C362.839 1154.84 316.594 1156.92 288.602 1180.7C254.199 1209.95 262.297 1259.93 289.49 1294.71L192.506 1291.36L192.51 1291.36Z" fill="#5F6C37"/>
<path d="M71.0655 888.856C84.6259 898.689 95.666 910.645 108.95 920.732C145.331 948.36 195.42 959.821 243.97 967.045C292.528 974.268 342.527 978.411 387.682 995.054C419.048 1006.62 450.619 1030.16 445.44 1057.75C440.44 1084.36 401.143 1098.84 368.91 1092.68C336.686 1086.51 315.041 1063.21 291.427 1044.03C236.117 999.122 99.3921 942.921 46.1589 933.494C33.6756 931.282 20.8713 929.319 9.67126 924.228C-1.53686 919.131 -11.0892 910.164 -11.8721 899.757C-12.9708 885.066 4.5186 872.918 22.4309 872.063C40.335 871.212 57.5051 879.031 71.0695 888.857L71.0655 888.856Z" fill="#BC6C25"/>
<path d="M59.8241 -34.2926C106.081 21.0696 100.358 94.0336 88.0349 159.775C75.7081 225.52 59.0933 294.832 88.6107 357.345C104.361 390.705 138.416 422.353 181.56 424.025C214.96 425.324 244.871 408.625 270.066 390.885C295.265 373.151 319.812 353.045 351.649 345.136C395.505 334.24 443.004 348.925 483.891 366.921C512.6 379.558 540.783 394.145 572.397 400.095C604.019 406.049 640.876 401.387 661.017 380.833C681.698 359.731 678.384 326.816 658.796 304.457C639.216 282.098 606.647 269.357 573.868 264.624C541.098 259.892 507.648 262.254 474.648 264.63C413.057 269.067 347.495 274.779 299.937 306.803C282.418 318.596 268.269 333.444 251.153 345.628C234.041 357.812 212.442 367.541 189.692 365.955C150.179 363.196 124.22 326.811 125.013 294.175C126.273 242.273 183.3 196.393 246.28 196.616C278.314 196.732 312.325 206.906 341.233 195.911C369.918 185.007 382.447 156.95 385.903 130.939C395.701 57.2171 350.51 -20.3872 274.17 -60.9292L59.82 -34.296L59.8241 -34.2926ZM319.495 64.8385C325.218 70.07 327.125 77.3145 328.696 84.1988C331.768 97.6354 334.387 111.616 330.193 124.751C329.22 127.788 327.826 130.831 325.238 133.118C322.65 135.409 318.65 136.817 314.938 136.006C311.777 135.322 309.356 133.222 307.361 131.075C301.218 124.469 288.93 97.5669 291.835 72.6737C292.276 68.9025 293.645 64.9963 296.911 62.3657C302.916 57.5269 313.772 59.6104 319.495 64.8418L319.495 64.8385Z" fill="#5F6C37"/>
<path d="M466.297 -57.1392C455.382 -23.1166 444.404 12.4418 453.371 47.1261C462.339 81.8105 497.956 114.941 540.804 114.004C565.763 113.457 591.328 101.919 614.442 110.048C637.962 118.321 645.844 145.113 634.861 163.846C623.882 182.579 599.305 193.576 574.485 197.733C549.662 201.89 523.932 200.373 498.523 200.665C412.889 201.654 242.521 243.125 242.521 243.125C222.997 249.405 203.587 258.874 194.3 274.338C185.012 289.802 190.251 312.187 209.545 319.457C225.599 325.508 244.725 319.245 257.426 309.457C270.126 299.669 278.601 286.76 289.915 275.877C320.349 246.599 368.871 234.297 415.802 230.996C462.737 227.695 510.207 232.007 557.213 229.348C604.219 226.686 652.983 215.825 685.163 187.849C717.344 159.877 726.181 111.397 694.543 82.1118C660.112 50.2408 596.931 53.1679 557.151 25.8584C527.882 5.7633 516.637 -30.3121 530.699 -59.0069L466.285 -57.1427L466.297 -57.1392Z" fill="#BC6C25"/>
<path d="M1135.49 892.16C1150.37 1003.41 1179.33 1113.41 1215.84 1221.52C1220.83 1236.31 1226.06 1251.55 1223.78 1266.68C1221.5 1281.82 1209.64 1296.97 1191.51 1300.09C1172.57 1303.34 1153.14 1292.32 1143.68 1278.23C1134.23 1264.14 1132.44 1247.64 1130.77 1231.7C1121.97 1147.67 1110.87 1063.77 1097.5 980.092C1093.63 955.958 1085.54 927.407 1057.85 918.566C1028.07 909.061 995.8 931.304 987.93 956.499C980.051 981.694 988.422 1008.31 992.851 1034.24C998.716 1068.55 997.581 1103.57 989.495 1137.37C985.294 1154.96 978.939 1172.69 965.517 1186.68C952.091 1200.67 930.298 1210.3 908.683 1207.34C879.873 1203.38 861.453 1179.93 849.233 1158.01C829.622 1122.8 816.055 1085.37 809.082 1047.22C804.527 1022.32 802.714 996.913 793.45 972.843C784.182 948.777 765.96 925.461 738.034 914.886C710.112 904.311 672.015 910.836 658.553 933.198C648.991 949.087 653.292 968.231 649.63 985.772C645.963 1003.32 625.803 1021.78 605.834 1014.49C590.966 1009.07 587.14 992.965 589.095 979.796C589.952 974.046 591.498 968.264 592.627 962.503C596.244 944.024 585.464 925.256 565.409 916.025C557.894 912.567 549.717 910.704 541.806 911.276C529.691 912.155 518.606 916.868 506.889 919.44C495.173 922.012 481.111 921.939 472.402 914.81C464.732 908.529 463.629 898.159 467.907 890.119C472.186 882.086 480.96 876.201 490.538 872.353C518.311 861.177 554.867 866.581 576.747 885.1C601.072 905.683 605.122 936.481 611.659 964.522C612.919 969.93 615.263 976.24 621.628 977.989C630.76 980.495 637.994 971.434 639.819 963.723C643.906 946.406 638.479 928.047 643.133 910.836C657.733 856.853 723.657 865.509 757.092 886.69C782.605 902.852 801.113 925.599 811.16 950.682C821.202 975.758 824.953 1002.1 830.692 1028.02C838.244 1062.12 849.328 1095.73 863.781 1128.38C870.718 1144.04 881.215 1161.56 900.918 1165.37C917.931 1168.66 935.437 1159.49 943.932 1147.1C952.419 1134.71 953.748 1119.85 953.928 1105.53C954.409 1067.59 948.189 1029.71 947.113 991.761C946.045 953.806 950.49 914.829 970.887 881.078C991.276 847.326 1015.6 816.903 1061.74 817.67C1110.98 818.488 1129.46 847.105 1135.49 892.157L1135.49 892.16Z" fill="#DDA25D"/>
<path d="M776.173 1164.29C799.667 1166.79 816.655 1184.14 827.07 1201.52C837.485 1218.89 844.487 1238.15 860.604 1252.42C886.143 1275.02 933.232 1278.54 962.581 1260.04C979.377 1249.45 990.887 1232.81 1010.9 1226.84C1039.07 1218.43 1072.49 1237.97 1078.06 1262.13C1083.64 1286.29 1066.41 1310.86 1041.71 1324.6C1017.01 1338.35 986.175 1342.97 956.073 1344.43C820.158 1351.02 648.15 1318.19 526.826 1264.08C577.824 1251.64 668.731 1214.09 710.892 1187.92C730.31 1175.86 751.676 1161.68 776.173 1164.29Z" fill="#BC6C25"/>
<path d="M493.178 451.931C555.801 487.996 592.148 553.096 584.269 615.099C580.27 646.567 566.508 680.688 586.117 708.24C606.457 736.823 656.529 743.362 692.378 729.394C728.226 715.43 751.757 686.421 768.194 656.684C784.632 626.949 795.855 595.087 816.203 567.082C828.94 549.555 845.943 533.263 868.754 525.208C891.568 517.146 920.97 519.105 938.548 533.969C954.573 547.518 957.627 568.704 952.011 586.803C946.404 604.906 933.478 620.692 920.769 636.077C894.853 667.461 868.937 698.841 843.021 730.225C810.413 769.705 773.817 811.701 718.294 825.899C662.872 840.066 601.55 822.422 552.552 795.674C524.426 780.317 497.404 760.365 487.846 733.789C475.717 700.032 494.355 665.089 500.573 630.505C506.223 599.098 529.813 553.441 437.25 484.088C428.812 477.764 422.969 468.196 423.986 458.93C425.254 447.346 439.995 439.371 454.126 439.318C468.261 439.263 481.506 445.206 493.183 451.931L493.178 451.931Z" fill="#BC6C25"/>
<path d="M902.756 -16.1816C913.7 7.11942 906.305 33.0853 897.556 56.7373C888.798 80.3958 878.666 105.059 884.551 129.512C894.202 169.571 942.305 194.721 968.277 229.652C1002.55 275.737 992.244 340.726 944.944 376.813C894.966 414.934 814.123 420.707 773.872 466.073C733.286 511.821 751.405 577.593 727.869 631.066C721.642 645.222 710.283 659.797 692.339 662.478C670.661 665.72 650.385 649.228 644.523 631.508C638.665 613.787 642.866 595.167 644.608 576.947C645.841 564.087 645.792 551.127 644.502 538.237C643.487 528.062 640.94 518.022 637.437 508.198C634.917 501.128 633.235 493.828 632.502 486.551C629.96 461.484 638.599 436.695 662.703 422.62C687.471 408.145 720.502 409.109 750.305 403.886C780.101 398.664 812.351 380.335 808.462 355.177C805.956 338.992 789.033 326.795 771.67 318.906C754.307 311.01 735.003 305.502 720.326 294.457C705.641 283.419 697.087 264.1 708.019 250.721C720.079 235.966 747.75 237.295 766.9 245.985C786.05 254.676 801.322 268.722 821.103 276.355C840.884 283.988 869.32 281.944 877.59 265.461C885.463 249.759 870.682 232.931 859.114 218.595C810.838 158.748 809.528 82.4484 809.916 11.0528C810.021 -8.16137 811.839 -30.2918 830.535 -41.408C854.721 -55.7917 891.816 -39.4758 902.76 -16.1748L902.756 -16.1816Z" fill="#DDA25D"/>
<path d="M1107.78 561.783C1127.74 568.067 1140.54 585.218 1144.38 602.585C1148.22 619.939 1144.6 637.67 1140.63 654.9C1134.03 683.635 1124.18 715.081 1094.65 730.894C1066.28 746.097 1028.44 741.988 996.843 752.082C944.647 768.751 921.738 819.341 915.511 865.561C909.275 911.773 913.314 960.487 890.116 1002.61C887.464 1007.43 883.102 1012.82 876.657 1012.54C868.712 1012.2 865.406 1003.99 864.268 997.445C863.357 992.201 862.503 986.957 861.681 981.701C845.155 875.353 882.215 768.375 965.918 688.052C978.552 675.937 989.321 662.519 997.778 648.077C1010.03 627.149 1017.82 604.118 1034.6 585.507C1051.36 566.889 1081.2 553.42 1107.78 561.783Z" fill="#5F6C37"/>
<path d="M1505.5 619.327C1497.09 579.577 1488.43 539.197 1466.82 502.85C1445.21 466.499 1408.46 434.092 1361.37 423.464C1306.16 411.005 1242.88 429.116 1193.2 405.302C1159.44 389.12 1140.44 354.018 1148.53 322.778C1156.62 291.538 1191.15 266.663 1229.72 264.294C1266.72 262.022 1304.48 278.376 1340.29 270.674C1383.76 261.326 1404.99 221.413 1415.73 185.298C1440.82 100.933 1440.6 11.1546 1415.1 -73.8447L1392.4 -73.9757C1399.19 2.75237 1405.51 82.41 1372.23 153.669C1361.71 176.176 1345.58 198.812 1318.84 208.378C1271.67 225.252 1217.59 194.573 1166.23 198.791C1121.65 202.453 1086.41 232.273 1066.8 265.413C1044.7 302.775 1037.83 346.994 1051.87 387.434C1065.9 427.873 1101.76 463.756 1148.85 479.747C1216.42 502.703 1296.28 483.843 1363.21 508.105C1434.25 533.858 1469.63 599.573 1494.5 660.331L1505.5 619.327Z" fill="#BC6C25"/>
<path d="M1497.56 441.244C1472.23 405.548 1423.72 381.708 1374.01 380.529C1352.52 380.019 1331.23 383.445 1309.74 383.613C1288.24 383.784 1265.31 380.125 1249.5 367.862C1233.21 355.218 1227.53 334.116 1235.89 317.271C1244.26 300.429 1266.1 288.979 1288.26 289.825C1311.74 290.72 1331.82 303.605 1352.17 313.584C1372.52 323.562 1398.86 330.882 1418.67 320.736C1434.96 312.398 1440.77 295.041 1441.36 279.109C1441.97 262.466 1438.37 245.851 1437.93 229.191C1437.48 212.531 1440.64 195.012 1452.97 182.008C1465.3 169.001 1488.83 162.3 1506.52 170.528L1497.56 441.244L1497.56 441.244Z" fill="#BC6C25"/>
<path d="M1216.65 -21.212L1011.38 -17.6374C971.719 -2.32973 942.098 31.2728 943.111 67.3463C944.123 103.416 979.907 138.653 1023.96 141.611C1061.09 144.113 1095.56 125.575 1132.73 124.752C1159.61 124.153 1185.48 132.803 1211.33 139.253C1237.17 145.702 1265.92 149.877 1290.2 140.769C1314.33 131.725 1329.25 110.774 1333.44 89.275C1338.73 62.1649 1328.51 33.0914 1306.3 12.0772C1284.09 -8.93021 1250.32 -21.4708 1216.64 -21.2121L1216.65 -21.212ZM1063.79 37.0624C1078.35 40.0924 1091.23 47.0561 1103.79 53.8987C1108.88 56.6733 1114.19 59.6434 1116.98 64.0877C1119.77 68.5321 1118.94 74.8759 1113.62 77.1874C1109.96 78.7686 1105.49 78.0462 1101.35 77.5941C1086.47 75.9521 1071.04 78.3816 1058.13 84.4004C1051.77 87.3668 1045.75 91.2554 1038.47 92.148C1028.01 93.4219 1017.6 87.9517 1011.48 80.7983C1005 73.222 1002.75 63.3027 1006.3 54.6573C1015.16 33.0801 1050.73 34.3451 1063.79 37.0657L1063.79 37.0624Z" fill="#5F6C37"/>
<path d="M1258.37 1283.76C1283.44 1218.41 1268.05 1146.53 1242.53 1080.58C1217.02 1014.63 1181.52 950.912 1165.5 883.067C1161.01 864.065 1158.1 844.299 1163.63 825.626C1169.16 806.953 1184.61 789.443 1206.86 783.988C1236.71 776.664 1268.84 792.806 1288.02 813.542C1307.2 834.278 1317.84 859.459 1334.79 881.467C1351.75 903.476 1378.8 923.444 1410.05 922.793C1424.52 922.493 1438.21 917.787 1452.48 915.982C1466.76 914.177 1483.52 916.185 1492.09 925.97C1499.1 933.986 1498.4 945.39 1492.46 953.801C1486.52 962.213 1476.19 967.938 1465.24 971.555C1429.39 983.398 1386.58 974.083 1355.56 954.287C1324.55 934.494 1303.7 905.681 1287.83 876.109C1281.46 864.254 1275.45 851.767 1264.11 842.777C1252.77 833.787 1234.19 829.473 1221.51 836.782C1206.34 845.534 1207.88 864.877 1215.43 879.099C1244.75 934.327 1333.54 959.658 1351.66 1017.95C1361.6 1049.91 1346.94 1082.71 1335.95 1114.13C1308.18 1193.51 1303.39 1278.63 1322.07 1360.46L1258.37 1283.75L1258.37 1283.76Z" fill="#BC6C25"/>
<path d="M1507.71 804.471C1485.22 821.366 1462.73 838.261 1440.23 855.159C1434.31 859.604 1427.79 864.273 1419.76 864.835C1405.7 865.819 1395.23 854.184 1389.09 843.585C1377.46 823.512 1370.02 801.953 1358.02 782.022C1346.02 762.091 1328.28 743.159 1303.36 734.704C1283.67 728.021 1260.86 728.32 1242.73 719.054C1226.62 710.824 1216.88 696.388 1208.76 682.28C1199.68 666.516 1191.59 649.968 1190.16 632.648C1188.73 615.327 1194.85 596.95 1210.43 585.538C1230.78 570.63 1262.79 570.943 1287.88 580.459C1312.98 589.971 1332.66 607.014 1351.28 623.918C1369.9 640.822 1388.64 658.358 1412.84 669.389C1439.3 681.459 1471.69 685.491 1493.1 703.162C1511.35 718.218 1517.92 740.785 1516.3 761.834C1514.68 782.884 1505.84 802.937 1497.08 822.652L1507.7 804.468L1507.71 804.471Z" fill="#BC6C25"/>
<path d="M1016.28 358.291C1023.49 364.316 1021.45 374.046 1020.22 382.362C1017.93 397.627 1020.25 413.405 1026.87 427.909C1035.07 445.844 1049.64 461.646 1056.34 479.986C1063.04 498.318 1058.63 521.859 1037.92 530.001C1021.72 536.362 1001.85 530.802 987.163 521.912C972.478 513.029 960.807 501.064 946.045 492.28C928.773 482.007 907.479 476.59 886.395 476.781C869.688 476.931 858.809 461.66 867.939 450.233C868.16 449.956 868.392 449.681 868.632 449.411C880.285 436.238 904.009 437.427 923.189 433.279C946.669 428.208 966.27 412.796 973.551 393.695C977.28 383.91 978.072 373.114 984.709 364.483C991.346 355.848 1007.43 350.905 1016.29 358.294L1016.28 358.291Z" fill="#BC6C25"/>
</g>
</svg>
