<svg width="1495" height="1248" viewBox="0 0 1495 1248" fill="none" xmlns="http://www.w3.org/2000/svg">
<mask id="mask0_162_1105" style="mask-type:luminance" maskUnits="userSpaceOnUse" x="0" y="0" width="1495" height="1248">
<path d="M8.15439 0L0 1237.27L1485.97 1247.07L1494.12 9.79344L8.15439 0Z" fill="white"/>
</mask>
<g mask="url(#mask0_162_1105)">
<path d="M117.406 550.663C177.802 564.561 234.977 520.19 297.314 515.338C376.989 509.132 444.418 570.28 466.031 634.496C483.505 686.397 478.981 745.32 442.466 789.72C405.959 834.119 333.992 859.368 273.107 841.01C210.773 822.21 173.208 765.5 110.512 747.554C68.3123 735.471 18.5578 744.29 -13.9793 769.62C-21.1701 775.219 -27.4472 781.562 -32.7406 788.444C-27.0747 771.087 -18.2142 754.647 -5.38868 740.089C25.9251 704.536 84.6964 683.789 134.248 699.553C168.235 710.363 193.162 735.782 226.972 746.961C275.68 763.052 337.359 742.001 358.371 702.112C379.375 662.222 356.251 610.068 309.104 591.005C237.973 562.252 152.371 607.568 75.4623 592.393C28.7602 583.177 -8.36258 552.206 -30.7928 516.855C-53.223 481.5 -63.105 441.744 -72.736 402.589L-83.09 286.489C-53.9641 358.807 -13.277 427.908 37.5791 491.384C57.81 516.637 82.2808 542.578 117.406 550.66L117.406 550.663Z" fill="#DDA25D"/>
<path d="M-71.3133 708.59C-13.3388 672.461 67.0114 662.759 135.082 683.664C164.015 692.551 191.432 706.673 222.163 708.58C252.894 710.487 288.696 693.308 287.445 667.671C286.703 652.472 272.83 639.346 256.34 632.762C239.851 626.177 221.079 625.006 202.813 624.68C150.869 623.752 98.7519 628.758 47.0531 624.385C-4.64569 620.011 -57.9026 604.624 -90.6905 571.003L-71.3133 708.593L-71.3133 708.59Z" fill="#BC6C25"/>
<path d="M-63.6298 938.933C-59.4609 907.439 -55.0197 875.149 -37.706 846.959C-20.3924 818.77 12.8458 795.129 50.9029 794.854C98.9304 794.507 135.666 828.952 165.405 860.417C195.144 891.878 231.961 926.296 279.985 925.845C312.18 925.542 340.599 909.173 371.549 901.844C402.499 894.515 444.95 902.264 451.052 928.6C455.958 949.776 433.661 968.594 410.685 978.479C332.549 1012.09 232.449 989.153 166.268 940.681C146.509 926.208 128.907 909.651 107.795 896.571C86.6826 883.492 60.8172 873.905 34.6949 876.286C-13.5211 880.682 -43.6012 923.048 -52.2469 962.78L-63.6298 938.933Z" fill="#BC6C25"/>
<path d="M221.993 1358.72C206.386 1329.25 192.129 1298.36 191.786 1266.18C191.44 1234 207.59 1200 240.809 1183.62C317.07 1146.02 423.668 1218.68 499.765 1180.86C523.298 1169.16 539.181 1147.45 540.881 1124.65C542.581 1101.85 530.045 1078.61 508.434 1064.49C498.394 1057.93 485.131 1051 486.055 1040.41C486.725 1032.75 495.312 1027.05 504.183 1024.95C528.92 1019.08 555.016 1034.86 565.496 1054.45C575.976 1074.04 574.984 1096.33 574.681 1117.76C574.378 1139.19 575.357 1161.82 588.946 1180.05C602.539 1198.27 633.075 1209.46 654.971 1198.24C697.028 1176.7 663.117 1107.77 706.782 1088.55C730.806 1077.98 762.325 1094.67 769.501 1116.53C776.677 1138.39 765.76 1161.66 750.504 1180.38C707.202 1233.53 625.585 1263.02 549.264 1253.1C509.18 1247.89 471.793 1232.94 432.118 1225.87C392.442 1218.8 346.265 1221.38 318.25 1245.74C283.817 1275.69 291.759 1326.19 318.809 1361.11L221.989 1358.72L221.993 1358.72Z" fill="#5F6C37"/>
<path d="M101.054 952.361C114.569 962.21 125.56 974.243 138.797 984.353C175.052 1012.05 225.043 1023.18 273.509 1030.02C321.982 1036.86 371.905 1040.56 416.953 1057C448.245 1068.43 479.707 1092.02 474.456 1120.1C469.386 1147.19 430.098 1162.3 397.924 1156.36C365.759 1150.42 344.21 1126.98 320.682 1107.74C265.573 1062.68 129.188 1006.99 76.0511 997.958C63.5904 995.838 50.8084 993.975 39.6376 988.918C28.4587 983.855 18.9446 974.844 18.1928 964.28C17.1379 949.368 34.6396 936.85 52.5311 935.799C70.4145 934.751 87.5397 942.518 101.058 952.361L101.054 952.361Z" fill="#BC6C25"/>
<path d="M103.625 42.8945C149.627 97.643 130.677 167.079 118.198 232.768C105.716 298.459 88.9443 367.751 118.223 429.8C133.846 462.911 167.738 494.132 210.782 495.367C244.105 496.326 273.997 479.372 299.187 461.426C324.38 443.487 348.928 423.19 380.718 414.982C424.508 403.675 471.861 417.844 512.609 435.38C541.22 447.694 569.3 461.959 600.828 467.576C632.364 473.197 669.154 468.177 689.307 447.477C710.002 426.223 706.787 393.43 687.304 371.328C667.83 349.226 635.367 336.846 602.674 332.456C569.988 328.065 536.605 330.756 503.671 333.457C442.203 338.501 376.769 344.857 329.226 377.272C311.712 389.209 297.553 404.159 280.441 416.482C263.333 428.805 241.754 438.724 219.059 437.371C179.639 435.017 153.839 398.99 154.721 366.434C156.123 314.659 213.153 268.33 275.994 267.92C307.957 267.714 341.865 277.519 370.74 266.264C399.393 255.1 411.972 226.994 415.493 201.018C425.475 127.396 380.599 50.4547 304.54 10.7885L96.1881 11.2842L103.625 42.8945ZM349.415 135.762C355.11 140.922 356.993 148.128 358.542 154.978C361.569 168.348 364.144 182.264 359.922 195.406C358.943 198.444 357.543 201.493 354.955 203.801C352.366 206.111 348.371 207.556 344.67 206.784C341.518 206.133 339.108 204.063 337.123 201.942C331.012 195.416 318.826 168.71 321.794 143.854C322.244 140.089 323.621 136.179 326.888 133.523C332.892 128.637 343.719 130.606 349.415 135.766L349.415 135.762Z" fill="#5F6C37"/>
<path d="M496.295 10.9897C485.306 45.2344 474.251 81.0205 483.102 115.728C491.953 150.435 527.404 183.313 570.166 181.939C595.077 181.138 620.622 169.303 643.666 177.225C667.113 185.287 674.904 212.086 663.891 230.992C652.882 249.898 628.323 261.18 603.543 265.602C578.759 270.024 553.085 268.762 527.728 269.313C442.266 271.173 272.13 314.505 272.13 314.505C252.629 321.003 233.232 330.7 223.919 346.309C214.607 361.918 219.772 384.322 239.006 391.421C255.011 397.329 274.115 390.851 286.817 380.903C299.519 370.954 308.014 357.917 319.335 346.884C349.789 317.202 398.246 304.368 445.091 300.581C491.939 296.794 539.3 300.639 586.217 297.496C633.134 294.349 681.829 282.958 714.023 254.565C746.216 226.175 755.172 177.447 723.681 148.386C689.411 116.759 626.35 120.336 586.729 93.3394C557.577 73.4748 546.457 37.395 560.571 8.4636L496.283 10.9863L496.295 10.9897Z" fill="#BC6C25"/>
<path d="M1164.98 950.632C1179.51 1062.91 1208.11 1173.78 1244.24 1282.66C1249.18 1297.55 1254.36 1312.91 1252.04 1328.22C1249.72 1343.54 1237.84 1358.98 1219.73 1362.31C1200.81 1365.79 1181.45 1354.85 1172.04 1340.7C1162.65 1326.57 1160.91 1309.9 1159.29 1293.82C1150.75 1208.99 1139.91 1124.32 1126.79 1039.88C1123.01 1015.53 1115.01 986.763 1087.39 978.111C1057.7 968.809 1025.42 991.617 1017.49 1017.16C1009.55 1042.7 1017.83 1069.51 1022.18 1095.67C1027.94 1130.29 1026.7 1165.69 1018.53 1199.94C1014.29 1217.75 1007.9 1235.73 994.456 1250.01C981.014 1264.28 959.232 1274.24 937.663 1271.46C908.914 1267.76 890.594 1244.25 878.459 1222.22C858.982 1186.84 845.546 1149.16 838.695 1110.67C834.219 1085.55 832.482 1059.89 823.303 1035.66C814.12 1011.44 795.997 988.06 768.15 977.658C740.308 967.256 702.259 974.239 688.757 996.976C679.166 1013.13 683.404 1032.43 679.698 1050.2C675.988 1067.97 655.81 1086.83 635.897 1079.67C621.07 1074.34 617.297 1058.1 619.287 1044.78C620.158 1038.96 621.718 1033.1 622.862 1027.26C626.525 1008.55 615.818 989.696 595.824 980.572C588.333 977.154 580.175 975.355 572.277 976.014C560.18 977.025 549.101 981.902 537.398 984.621C525.694 987.34 511.657 987.409 502.984 980.294C495.346 974.024 494.274 963.556 498.568 955.387C502.863 947.225 511.638 941.189 521.21 937.202C548.967 925.624 585.443 930.712 607.231 949.204C631.454 969.756 635.409 1000.84 641.855 1029.11C643.097 1034.56 645.419 1040.92 651.768 1042.62C660.876 1045.06 668.123 1035.83 669.967 1028.02C674.097 1010.47 668.732 991.975 673.427 974.534C688.156 919.83 753.94 927.904 787.256 948.968C812.678 965.041 831.088 987.84 841.045 1013.09C850.999 1038.33 854.667 1064.91 860.322 1091.05C867.763 1125.43 878.732 1159.28 893.066 1192.13C899.946 1207.88 910.374 1225.49 930.031 1229.14C947.005 1232.28 964.507 1222.83 973.022 1210.23C981.53 1197.62 982.899 1182.59 983.12 1168.12C983.709 1129.77 977.608 1091.55 976.643 1053.21C975.686 1014.87 980.235 975.431 1000.69 941.114C1021.14 906.796 1045.51 875.803 1091.56 876.106C1140.72 876.43 1159.09 905.161 1164.97 950.629L1164.98 950.632Z" fill="#DDA25D"/>
<path d="M805.995 1224.46C829.46 1226.78 846.383 1244.4 856.738 1262.1C867.093 1279.8 874.032 1299.46 890.094 1313.92C915.544 1336.82 962.581 1339.96 991.959 1320.69C1008.77 1309.67 1020.32 1292.5 1040.33 1286.18C1068.5 1277.27 1101.83 1296.95 1107.33 1321.66C1112.83 1346.36 1095.55 1371.72 1070.83 1386.06C1046.11 1400.39 1015.29 1405.45 985.21 1407.25C849.395 1415.39 677.635 1383.49 556.575 1329.28C607.565 1316.01 698.502 1276.6 740.702 1249.35C760.138 1236.79 781.527 1222.04 805.995 1224.46Z" fill="#BC6C25"/>
<path d="M523.619 517.656C586.012 553.389 622.1 618.673 614.06 681.285C609.978 713.063 596.147 747.616 615.638 775.202C635.855 803.821 685.806 809.905 721.622 795.451C757.438 781.002 781.004 751.506 797.493 721.346C813.982 691.191 825.273 658.942 845.66 630.49C858.421 612.684 875.436 596.079 898.223 587.722C921.014 579.359 950.351 581.034 967.851 595.846C983.805 609.346 986.792 630.682 981.136 648.993C975.489 667.307 962.544 683.36 949.816 699.006C923.864 730.922 897.911 762.835 871.958 794.751C839.303 834.901 802.662 877.629 747.21 892.515C691.86 907.368 630.713 890.201 581.891 863.725C553.866 848.524 526.955 828.678 517.493 801.973C505.484 768.051 524.185 732.621 530.489 697.678C536.217 665.945 559.89 619.658 467.713 550.658C459.31 544.367 453.506 534.777 454.547 525.421C455.846 513.725 470.58 505.531 484.682 505.334C498.789 505.134 511.99 510.993 523.623 517.656L523.619 517.656Z" fill="#BC6C25"/>
<path d="M932.66 49.9263C943.477 73.1129 936.05 99.1508 927.284 122.889C918.508 146.634 908.363 171.397 914.146 195.787C923.63 235.743 971.392 260.399 997.121 295.061C1031.07 340.791 1020.64 405.877 973.502 442.441C923.697 481.066 843.29 487.662 803.137 533.433C762.649 579.588 780.482 645.167 756.926 698.874C750.695 713.09 739.357 727.779 721.506 730.643C699.941 734.106 679.825 717.822 674.046 700.163C668.271 682.505 672.501 663.845 674.284 645.609C675.547 632.738 675.535 619.78 674.288 606.905C673.307 596.741 670.804 586.729 667.348 576.942C664.862 569.898 663.21 562.616 662.502 555.348C660.045 530.31 668.706 505.436 692.714 491.117C717.384 476.391 750.227 477.019 779.878 471.494C809.521 465.968 841.642 447.313 837.847 422.199C835.4 406.041 818.606 394.017 801.363 386.306C784.12 378.589 764.939 373.277 750.376 362.383C735.804 351.496 727.353 332.267 738.261 318.778C750.296 303.902 777.808 304.949 796.826 313.444C815.844 321.938 830.991 335.827 850.639 343.258C870.287 350.688 898.57 348.354 906.841 331.789C914.714 316.01 900.063 299.334 888.6 285.118C840.764 225.77 839.676 149.493 840.264 78.1029C840.423 58.89 842.293 36.7438 860.915 25.4386C885.006 10.8105 921.848 26.7465 932.664 49.9331L932.66 49.9263Z" fill="#DDA25D"/>
<path d="M1137.46 624.99C1157.32 631.077 1170.01 648.118 1173.78 665.466C1177.56 682.801 1173.9 700.59 1169.91 717.88C1163.25 746.716 1153.36 778.3 1123.92 794.433C1095.63 809.943 1057.96 806.215 1026.48 816.643C974.471 833.864 951.521 884.747 945.191 931.084C938.853 977.415 942.735 1026.14 919.522 1068.55C916.868 1073.41 912.51 1078.84 906.094 1078.63C898.186 1078.38 894.918 1070.18 893.803 1063.65C892.911 1058.4 892.076 1053.16 891.273 1047.91C875.121 941.606 912.319 834.124 995.876 752.853C1008.49 740.596 1019.25 727.052 1027.71 712.506C1039.96 691.429 1047.78 668.291 1064.54 649.488C1081.28 630.677 1111.02 616.888 1137.46 624.99Z" fill="#5F6C37"/>
<path d="M1533.06 684.495C1524.79 644.783 1516.28 604.443 1494.87 568.273C1473.46 532.1 1436.96 500.028 1390.12 489.868C1335.19 477.957 1272.14 496.735 1222.75 473.398C1189.18 457.541 1170.36 422.591 1178.5 391.231C1186.65 359.872 1221.1 334.615 1259.5 331.849C1296.34 329.198 1333.89 345.186 1369.56 337.11C1412.87 327.308 1434.11 287.13 1444.91 250.862C1470.12 166.141 1470.16 76.2574 1445.02 -8.58345L1422.41 -8.48305C1428.96 68.2674 1435.02 147.956 1401.69 219.639C1391.16 242.281 1375.03 265.108 1348.38 274.959C1301.37 292.333 1247.62 262.169 1196.48 266.916C1152.09 271.037 1116.91 301.252 1097.3 334.631C1075.19 372.263 1068.23 416.605 1082.09 456.95C1095.95 497.295 1131.55 532.855 1178.38 548.385C1245.59 570.68 1325.14 550.983 1391.7 574.591C1462.37 599.651 1497.4 665.083 1521.99 725.66L1533.06 684.495Z" fill="#BC6C25"/>
<path d="M1526.31 507.671C1501.15 472.059 1452.84 448.598 1403.28 447.921C1381.84 447.628 1360.6 451.288 1339.17 451.676C1317.74 452.067 1294.88 448.625 1279.15 436.463C1262.94 423.925 1257.34 402.777 1265.73 385.765C1274.12 368.755 1295.93 357.027 1318.02 357.651C1341.44 358.31 1361.42 371.052 1381.69 380.872C1401.96 390.692 1428.19 397.778 1447.98 387.38C1464.25 378.835 1470.09 361.335 1470.72 345.319C1471.38 328.589 1467.84 311.929 1467.44 295.192C1467.05 278.455 1470.25 260.819 1482.58 247.626C1494.91 234.43 1518.39 227.456 1536.02 235.543L1526.31 507.671L1526.31 507.671Z" fill="#BC6C25"/>
<path d="M1245.79 10.7073L1040.73 10.7374C1000.85 25.6203 970.665 59.2999 971.032 96.033C971.399 132.763 1006.51 169.256 1050.45 173.04C1087.49 176.239 1122.24 157.978 1159.38 157.793C1186.24 157.656 1211.91 166.915 1237.61 173.934C1263.31 180.952 1291.94 185.706 1316.36 176.863C1340.61 168.082 1355.89 147.02 1360.46 125.213C1366.23 97.7136 1356.54 67.9432 1334.73 46.1647C1312.93 24.3932 1279.43 11.0359 1245.79 10.7072L1245.79 10.7073ZM1092.1 67.3317C1106.58 70.6715 1119.32 77.9855 1131.74 85.1706C1136.78 88.084 1142.02 91.2002 1144.73 95.7727C1147.44 100.345 1146.5 106.787 1141.14 109.046C1137.46 110.591 1133.01 109.778 1128.88 109.245C1114.05 107.312 1098.6 109.513 1085.6 115.412C1079.2 118.32 1073.11 122.172 1065.82 122.952C1055.36 124.065 1045.06 118.314 1039.07 110.926C1032.74 103.101 1030.66 92.9657 1034.36 84.2289C1043.6 62.4237 1079.1 64.3364 1092.1 67.335L1092.1 67.3317Z" fill="#5F6C37"/>
<path d="M1287.63 1347.71C1312.77 1282.05 1297.66 1210.28 1272.45 1144.55C1247.24 1078.81 1212.1 1015.4 1196.34 947.672C1191.92 928.702 1189.09 908.951 1194.65 890.208C1200.2 871.465 1215.63 853.785 1237.79 848.099C1267.52 840.465 1299.45 856.291 1318.47 876.847C1337.5 897.403 1348.02 922.494 1364.83 944.346C1381.64 966.197 1408.5 985.905 1439.61 984.934C1454.01 984.486 1467.65 979.637 1481.86 977.686C1496.07 975.734 1512.75 977.573 1521.24 987.278C1528.2 995.227 1527.47 1006.65 1521.53 1015.13C1515.6 1023.6 1505.31 1029.44 1494.4 1033.17C1458.68 1045.39 1416.11 1036.5 1385.3 1017.01C1354.48 997.516 1333.82 968.894 1318.1 939.462C1311.81 927.663 1305.86 915.229 1294.6 906.348C1283.33 897.467 1264.85 893.339 1252.22 900.782C1237.09 909.695 1238.57 929.036 1246.04 943.192C1275.07 998.161 1363.36 1022.61 1381.23 1080.76C1391.03 1112.64 1376.35 1145.61 1365.32 1177.16C1337.47 1256.89 1332.45 1342.12 1350.82 1423.82L1287.64 1347.71L1287.63 1347.71Z" fill="#BC6C25"/>
<path d="M1536.61 868.324C1514.12 885.554 1491.64 902.783 1469.15 920.016C1463.23 924.549 1456.72 929.314 1448.71 929.962C1434.67 931.096 1424.27 919.495 1418.17 908.892C1406.62 888.814 1399.26 867.197 1387.35 847.264C1375.44 827.332 1357.79 808.463 1332.96 800.21C1313.34 793.686 1290.58 794.22 1272.52 785.082C1256.48 776.965 1246.8 762.539 1238.73 748.426C1229.72 732.657 1221.71 716.089 1220.33 698.675C1218.95 681.261 1225.11 662.708 1240.68 651.066C1261.02 635.857 1292.95 635.845 1317.96 645.164C1342.97 654.479 1362.55 671.427 1381.07 688.246C1399.6 705.065 1418.25 722.519 1442.35 733.371C1468.72 745.246 1501.01 748.972 1522.32 766.534C1540.48 781.498 1546.97 804.137 1545.3 825.335C1543.62 846.532 1534.74 866.799 1525.95 886.727L1536.6 868.321L1536.61 868.324Z" fill="#BC6C25"/>
<path d="M1045.89 423.562C1053.07 429.549 1051.01 439.357 1049.75 447.734C1047.43 463.112 1049.69 478.958 1056.26 493.479C1064.38 511.435 1078.88 527.18 1085.5 545.559C1092.13 563.93 1087.67 587.653 1066.99 596.054C1050.82 602.618 1031 597.228 1016.38 588.436C1001.76 579.651 990.153 567.735 975.454 559.051C958.255 548.894 937.03 543.664 915.999 544.071C899.334 544.392 888.526 529.143 897.666 517.557C897.887 517.275 898.119 516.997 898.36 516.722C910.02 503.353 933.68 504.308 952.824 499.939C976.259 494.599 995.853 478.897 1003.17 459.61C1006.92 449.729 1007.74 438.863 1014.38 430.113C1021.03 421.36 1037.09 416.224 1045.9 423.566L1045.89 423.562Z" fill="#BC6C25"/>
</g>
</svg>
