<svg width="42" height="42" viewBox="0 0 42 42" fill="none" xmlns="http://www.w3.org/2000/svg">
<mask id="mask0_181_585" style="mask-type:alpha" maskUnits="userSpaceOnUse" x="0" y="0" width="42" height="42">
<rect width="42" height="42" fill="#D9D9D9"/>
</mask>
<g mask="url(#mask0_181_585)">
<path d="M18 18C16.4875 18 15.1927 17.4615 14.1157 16.3844C13.0386 15.3073 12.5 14.0125 12.5 12.5C12.5 10.9875 13.0386 9.69271 14.1157 8.61563C15.1927 7.53854 16.4875 7 18 7C19.5125 7 20.8073 7.53854 21.8844 8.61563C22.9615 9.69271 23.5 10.9875 23.5 12.5C23.5 14.0125 22.9615 15.3073 21.8844 16.3844C20.8073 17.4615 19.5125 18 18 18ZM7.00003 29V25.15C7.00003 24.3708 7.20055 23.6547 7.60159 23.0016C8.00263 22.3484 8.53545 21.85 9.20003 21.5063C10.6209 20.7958 12.0646 20.263 13.5313 19.9078C14.9979 19.5526 16.4875 19.375 18 19.375C19.5125 19.375 21.0021 19.5526 22.4688 19.9078C23.9354 20.263 25.3792 20.7958 26.8 21.5063C27.4646 21.85 27.9974 22.3484 28.3985 23.0016C28.7995 23.6547 29 24.3708 29 25.15V29H7.00003Z" fill="#BC6D24"/>
</g>
</svg>
