<svg width="1493" height="980" viewBox="0 0 1493 980" fill="none" xmlns="http://www.w3.org/2000/svg">
<mask id="mask0_93_233" style="mask-type:luminance" maskUnits="userSpaceOnUse" x="0" y="0" width="1493" height="980">
<path d="M6.38973 0L0 969.519L1485.97 979.313L1492.36 9.79344L6.38973 0Z" fill="white"/>
</mask>
<g mask="url(#mask0_93_233)">
<path d="M114.244 377.675C174.659 388.652 231.771 353.964 294.1 350.251C373.766 345.501 441.281 393.513 462.985 443.864C480.533 484.559 476.093 530.724 439.642 565.464C403.199 600.204 331.268 619.886 270.358 605.413C207.997 590.593 170.352 546.102 107.631 531.95C65.4145 522.421 15.673 529.261 -16.8277 549.063C-24.0104 553.44 -30.2784 558.402 -35.5619 563.787C-29.9208 550.194 -21.0839 537.324 -8.27926 525.935C22.9835 498.12 81.7247 481.946 131.299 494.37C165.3 502.888 190.264 522.842 224.089 531.651C272.82 544.33 334.468 527.922 355.423 496.694C376.37 465.466 353.171 424.565 305.997 409.56C234.827 386.928 149.29 422.316 72.3603 410.314C25.6455 403.026 -11.5211 378.705 -34.0015 350.971C-56.4819 323.235 -66.4205 292.068 -76.1073 261.372L-86.6268 170.381C-57.398 227.091 -16.6127 281.298 34.3334 331.109C54.6001 350.927 79.1078 371.29 114.244 377.672L114.244 377.675Z" fill="#DDA25D"/>
<path d="M-74.2481 501.157C-16.3257 472.929 64.0099 465.441 132.109 481.92C161.055 488.925 188.492 500.03 219.226 501.568C249.959 503.106 285.736 489.696 284.448 469.605C283.685 457.694 269.793 447.388 253.294 442.205C236.795 437.023 218.023 436.078 199.756 435.796C147.811 434.995 95.7017 438.843 43.9971 435.343C-7.7074 431.842 -60.9857 419.708 -93.8213 393.316L-74.2481 501.16L-74.2481 501.157Z" fill="#BC6C25"/>
<path d="M-66.2361 681.666C-62.1122 656.993 -57.7171 631.697 -40.4438 609.632C-23.1705 587.567 10.0336 569.09 48.09 568.929C96.1166 568.725 132.901 595.769 162.685 620.467C192.469 645.162 229.334 672.185 277.357 671.9C309.551 671.708 337.947 658.922 368.886 653.223C399.825 647.524 442.286 653.657 448.426 674.302C453.362 690.904 431.092 705.617 408.131 713.331C330.043 739.559 229.912 721.441 163.662 683.363C143.882 671.994 126.257 658.995 105.126 648.716C83.9958 638.436 58.1169 630.887 31.9983 632.716C-16.2111 636.091 -46.2304 669.247 -54.8194 700.369L-66.2361 681.666Z" fill="#BC6C25"/>
<path d="M219.983 1011.02C204.334 987.907 190.033 963.676 189.645 938.461C189.252 913.247 205.354 886.623 238.549 873.837C314.756 844.484 421.456 901.574 497.498 872.046C521.015 862.913 536.867 845.918 538.534 828.057C540.202 810.195 527.633 791.965 506.002 780.871C495.952 775.718 482.68 770.263 483.588 761.972C484.247 755.968 492.826 751.51 501.694 749.876C526.423 745.319 552.541 757.717 563.049 773.085C573.557 788.453 572.596 805.915 572.324 822.704C572.051 839.495 573.063 857.234 586.678 871.535C600.296 885.836 630.848 894.649 652.728 885.889C694.754 869.066 660.745 815.002 704.382 800.009C728.39 791.759 759.934 804.877 767.14 822.018C774.347 839.16 763.464 857.38 748.234 872.03C705.009 913.615 623.434 936.608 547.1 928.723C507.009 924.584 469.602 912.819 429.916 907.222C390.231 901.625 344.058 903.58 316.078 922.628C281.688 946.045 289.702 985.629 316.801 1013.03L219.979 1011.02L219.983 1011.02Z" fill="#5F6C37"/>
<path d="M98.4654 692.423C111.994 700.16 123.002 709.605 136.254 717.546C172.547 739.299 222.554 748.092 271.029 753.522C319.512 758.953 369.44 761.922 414.511 774.873C445.818 783.87 477.314 802.402 472.103 824.396C467.071 845.614 427.805 857.399 395.624 852.702C363.45 848.002 341.868 829.599 318.313 814.493C263.14 779.107 126.677 735.271 73.5277 728.118C61.0641 726.438 48.2795 724.96 37.1015 720.982C25.9156 716.998 16.3887 709.924 15.6219 701.645C14.5457 689.959 32.0294 680.174 49.9192 679.376C67.8009 678.58 84.9371 684.691 98.4695 692.423L98.4654 692.423Z" fill="#BC6C25"/>
<path d="M86.7232 -26.5648C132.799 16.8394 126.985 74.4823 114.597 126.467C102.204 178.454 85.5285 233.285 114.892 282.445C130.56 308.679 164.495 333.441 207.541 334.477C240.865 335.283 270.733 321.902 295.898 307.73C321.066 293.564 345.587 277.529 377.364 271.075C421.139 262.184 468.511 273.466 509.282 287.404C537.91 297.192 566.01 308.523 597.545 313.013C629.089 317.506 665.871 313.582 685.996 297.223C706.661 280.426 703.401 254.461 683.888 236.938C664.383 219.414 631.904 209.569 599.205 206.049C566.514 202.528 533.135 204.613 500.204 206.706C438.744 210.614 373.32 215.556 325.822 241.151C308.324 250.577 294.185 262.393 277.09 272.125C259.999 281.857 238.434 289.679 215.737 288.577C176.315 286.659 150.466 258.103 151.303 232.332C152.633 191.347 209.599 154.749 272.439 154.511C304.402 154.392 338.323 162.2 367.183 153.33C395.82 144.532 408.36 122.299 411.846 101.741C421.726 43.4724 376.745 -17.499 300.632 -49.0047L86.7191 -26.5674L86.7232 -26.5648ZM345.678 49.9909C351.381 54.0836 353.273 59.7905 354.832 65.2155C357.877 75.8034 360.471 86.824 356.267 97.2216C355.293 99.6255 353.897 102.037 351.312 103.86C348.726 105.686 344.733 106.824 341.031 106.208C337.878 105.688 335.465 104.046 333.477 102.365C327.357 97.1895 315.135 76.0312 318.069 56.3588C318.513 53.3786 319.885 50.2857 323.148 48.1872C329.146 44.3275 339.975 45.901 345.678 49.9936L345.678 49.9909Z" fill="#5F6C37"/>
<path d="M492.371 -46.2155C481.43 -19.2593 470.424 8.91082 479.324 36.2591C488.224 63.6074 523.721 89.5522 566.48 88.5299C591.389 87.9337 616.917 78.6482 639.972 84.9196C663.431 91.302 671.259 112.421 660.272 127.296C649.29 142.171 624.747 151.022 599.974 154.471C575.196 157.919 549.521 156.889 524.164 157.287C438.706 158.632 268.632 192.523 268.632 192.523C249.14 197.614 229.757 205.224 220.467 217.505C211.176 229.785 216.373 247.439 235.616 253.057C251.629 257.732 270.724 252.657 283.412 244.84C296.1 237.022 304.576 226.766 315.882 218.091C346.294 194.756 394.733 184.716 441.572 181.799C488.415 178.881 535.78 181.976 582.693 179.566C629.605 177.153 678.284 168.25 710.437 145.932C742.59 123.617 751.477 85.2506 719.946 62.3177C685.632 37.3601 622.577 40.0887 582.919 18.7707C553.739 3.08431 542.569 -25.3481 556.642 -48.1151L492.358 -46.2182L492.371 -46.2155Z" fill="#BC6C25"/>
<path d="M1162.38 692.586C1177.07 780.584 1205.83 867.508 1242.11 952.879C1247.08 964.554 1252.27 976.595 1249.97 988.592C1247.68 1000.59 1235.82 1012.67 1217.72 1015.25C1198.8 1017.95 1179.42 1009.36 1170 998.258C1160.58 987.166 1158.83 974.107 1157.18 961.499C1148.51 895.014 1137.56 828.649 1124.32 762.469C1120.5 743.383 1112.47 720.827 1084.83 714.008C1055.13 706.676 1022.88 724.503 1014.98 744.507C1007.08 764.511 1015.4 785.53 1019.79 806.035C1025.59 833.167 1024.41 860.906 1016.29 887.733C1012.07 901.684 1005.7 915.766 992.284 926.934C978.862 938.103 957.094 945.874 935.522 943.667C906.768 940.727 888.414 922.276 876.248 904.997C856.721 877.24 843.231 847.694 836.325 817.526C831.814 797.837 830.04 777.729 820.827 758.729C811.609 739.732 793.453 721.388 765.592 713.198C737.734 705.007 699.696 710.424 686.226 728.222C676.658 740.867 680.924 755.999 677.244 769.914C673.559 783.834 653.408 798.588 633.485 792.947C618.651 788.747 614.854 776.021 616.825 765.579C617.688 761.021 619.24 756.432 620.375 751.862C624.012 737.205 613.278 722.413 593.272 715.235C585.775 712.546 577.615 711.125 569.718 711.63C557.622 712.405 546.551 716.21 534.851 718.324C523.152 720.439 509.115 720.473 500.432 714.885C492.785 709.961 491.698 701.757 495.98 695.362C500.263 688.972 509.03 684.254 518.596 681.144C546.336 672.111 582.819 676.15 604.633 690.671C628.886 706.811 632.885 731.173 639.371 753.336C640.621 757.61 642.951 762.592 649.303 763.935C658.415 765.859 665.649 758.636 667.481 752.518C671.586 738.777 666.195 724.275 670.865 710.614C685.516 667.769 751.31 674.19 784.656 690.743C810.101 703.375 828.543 721.266 838.536 741.063C848.526 760.855 852.232 781.693 857.924 802.18C865.414 829.131 876.431 855.677 890.812 881.433C897.714 893.791 908.168 907.599 927.83 910.487C944.808 912.978 962.296 905.598 970.793 895.733C979.283 885.868 980.631 874.092 980.831 862.749C981.365 832.704 975.21 802.744 974.19 772.7C973.178 742.65 977.671 711.755 998.079 684.893C1018.48 658.031 1042.8 633.779 1088.86 634.082C1138.01 634.406 1156.42 656.946 1162.37 692.583L1162.38 692.586Z" fill="#DDA25D"/>
<path d="M803.788 906.647C827.256 908.499 844.204 922.325 854.584 936.214C864.964 950.098 871.932 965.516 888.014 976.869C913.496 994.851 960.537 997.374 989.887 982.321C1006.68 973.709 1018.21 960.268 1038.21 955.342C1066.37 948.402 1099.73 963.873 1105.26 983.24C1110.79 1002.61 1093.55 1022.45 1068.85 1033.65C1044.15 1044.85 1013.34 1048.77 983.262 1050.14C847.46 1056.32 675.656 1031.08 554.52 988.428C605.49 978.103 696.37 947.347 738.531 926.053C757.949 916.239 779.317 904.714 803.788 906.647Z" fill="#BC6C25"/>
<path d="M520.406 352.389C582.85 380.479 619.03 431.687 611.079 480.739C607.043 505.634 593.261 532.69 612.791 554.335C633.049 576.789 683.009 581.628 718.804 570.353C754.598 559.082 778.122 536.002 794.568 512.393C811.014 488.786 822.259 463.532 842.605 441.266C855.341 427.331 872.332 414.344 895.107 407.828C917.886 401.307 947.225 402.662 964.745 414.293C980.719 424.895 983.736 441.618 978.107 455.958C972.485 470.301 959.563 482.861 946.858 495.104C920.951 520.076 895.044 545.046 869.137 570.019C836.54 601.434 799.959 634.863 744.53 646.449C689.202 658.009 628.03 644.47 579.171 623.653C551.124 611.702 524.186 596.112 514.686 575.172C502.629 548.574 521.279 520.837 527.533 493.465C533.216 468.607 556.822 432.37 464.548 378.17C456.136 373.228 450.318 365.706 451.346 358.376C452.628 349.213 467.35 342.813 481.452 342.679C495.558 342.542 508.767 347.151 520.411 352.389L520.406 352.389Z" fill="#BC6C25"/>
<path d="M928.777 -13.5415C939.626 4.64306 932.237 25.0359 923.504 43.6246C914.763 62.2186 904.653 81.6087 910.471 100.729C920.012 132.052 967.808 151.441 993.586 178.639C1027.6 214.522 1017.26 265.508 970.178 294.093C920.428 324.289 840.032 329.342 799.944 365.151C759.523 401.261 777.449 452.674 753.97 494.725C747.759 505.857 736.442 517.351 718.596 519.569C697.036 522.252 676.897 509.463 671.092 495.618C665.292 481.772 669.496 467.156 671.253 452.869C672.497 442.785 672.466 432.631 671.202 422.541C670.206 414.575 667.689 406.725 664.219 399.052C661.722 393.528 660.061 387.82 659.341 382.123C656.849 362.5 665.474 343.021 689.462 331.835C714.11 320.331 746.955 320.87 776.598 316.582C806.232 312.295 838.326 297.722 834.495 278.037C832.025 265.373 815.214 255.927 797.961 249.86C780.707 243.788 761.519 239.598 746.94 231.041C732.353 222.489 723.874 207.409 734.763 196.855C746.776 185.215 774.289 186.075 793.319 192.758C812.35 199.441 827.516 210.347 847.175 216.197C866.834 222.047 895.113 220.259 903.359 207.29C911.21 194.937 896.535 181.849 885.052 170.693C837.132 124.119 835.936 64.347 836.422 8.40602C836.553 -6.64898 838.391 -24.0001 856.998 -32.8324C881.067 -44.2607 917.931 -31.7206 928.781 -13.5361L928.777 -13.5415Z" fill="#DDA25D"/>
<path d="M1134.39 437.372C1154.26 442.17 1166.98 455.541 1170.78 469.141C1174.58 482.731 1170.95 496.664 1166.97 510.208C1160.36 532.794 1150.51 557.529 1121.09 570.129C1092.83 582.242 1055.16 579.267 1023.69 587.394C971.705 600.814 948.828 640.654 942.564 676.954C936.292 713.25 940.244 751.44 917.091 784.638C914.444 788.438 910.094 792.692 903.678 792.517C895.769 792.307 892.489 785.881 891.366 780.757C890.466 776.648 889.623 772.54 888.813 768.422C872.509 685.099 909.553 600.929 992.994 537.364C1005.59 527.777 1016.33 517.18 1024.77 505.794C1036.99 489.295 1044.78 471.175 1061.51 456.465C1078.23 441.749 1107.95 430.986 1134.39 437.372Z" fill="#5F6C37"/>
<path d="M1530.07 484.565C1521.75 453.435 1513.18 421.812 1491.72 393.438C1470.26 365.062 1433.72 339.879 1386.86 331.85C1331.91 322.438 1268.89 337.063 1219.46 318.706C1185.88 306.233 1167.01 278.819 1175.11 254.257C1183.2 229.695 1217.62 209.953 1256.01 207.84C1292.86 205.815 1330.42 218.397 1366.08 212.119C1409.37 204.5 1430.56 173.047 1441.31 144.643C1466.4 78.291 1466.31 7.85795 1441.05 -58.6595L1418.44 -58.6131C1425.1 1.53821 1431.28 63.991 1398.04 120.115C1387.54 137.842 1371.45 155.706 1344.81 163.387C1297.83 176.935 1244.04 153.222 1192.9 156.868C1148.52 160.034 1113.39 183.66 1093.82 209.789C1071.77 239.246 1064.87 273.982 1078.79 305.617C1092.7 337.251 1128.35 365.166 1175.2 377.402C1242.44 394.969 1321.97 379.647 1388.56 398.242C1459.26 417.98 1494.39 469.303 1519.06 516.806L1530.07 484.565Z" fill="#BC6C25"/>
<path d="M1523.07 345.995C1497.87 318.054 1449.52 299.601 1399.96 299C1378.52 298.74 1357.29 301.578 1335.86 301.851C1314.43 302.127 1291.56 299.397 1275.82 289.845C1259.58 279.996 1253.95 263.417 1262.32 250.098C1270.68 236.781 1292.48 227.621 1314.58 228.142C1337.99 228.692 1357.99 238.706 1378.27 246.429C1398.55 254.153 1424.8 259.743 1444.58 251.623C1460.83 244.951 1466.65 231.246 1467.25 218.696C1467.89 205.588 1464.32 192.528 1463.9 179.412C1463.49 166.297 1466.66 152.481 1478.98 142.161C1491.29 131.838 1514.76 126.406 1532.39 132.769L1523.08 345.995L1523.07 345.995Z" fill="#BC6C25"/>
<path d="M1242.39 -17.0983L1037.36 -12.8976C997.732 -0.42613 968.097 26.5732 969.057 55.3422C970.016 84.1087 1005.71 111.982 1049.7 114.051C1086.79 115.803 1121.24 100.79 1158.37 99.8885C1185.22 99.2338 1211.04 105.964 1236.85 110.939C1262.65 115.914 1291.36 119.055 1315.63 111.63C1339.74 104.257 1354.67 87.4463 1358.89 70.2693C1364.22 48.6089 1354.05 25.4842 1331.89 8.86724C1309.74 -7.74437 1276.03 -17.526 1242.39 -17.0983L1242.39 -17.0983ZM1089.64 30.3917C1104.18 32.7131 1117.03 38.1833 1129.57 43.5591C1134.65 45.7389 1139.94 48.0733 1142.72 51.6002C1145.51 55.1271 1144.67 60.193 1139.34 62.0719C1135.69 63.3572 1131.23 62.8103 1127.09 62.4769C1112.24 61.2649 1096.82 63.3043 1083.91 68.1903C1077.56 70.5984 1071.54 73.7399 1064.26 74.4998C1053.82 75.5847 1043.43 71.2896 1037.33 65.6235C1030.87 59.6225 1028.63 51.7247 1032.19 44.805C1041.07 27.5346 1076.6 28.31 1089.64 30.3944L1089.64 30.3917Z" fill="#5F6C37"/>
<path d="M1285.6 1003.91C1310.64 952.499 1295.43 896.238 1270.13 844.692C1244.82 793.143 1209.59 743.408 1193.73 690.311C1189.29 675.44 1186.43 659.958 1191.96 645.279C1197.49 630.601 1212.89 616.768 1235.04 612.344C1264.76 606.405 1296.71 618.852 1315.77 634.986C1334.82 651.121 1345.37 670.798 1362.22 687.945C1379.06 705.091 1405.95 720.573 1437.06 719.856C1451.45 719.526 1465.08 715.746 1479.29 714.237C1493.5 712.728 1510.18 714.192 1518.69 721.809C1525.66 728.049 1524.95 736.996 1519.02 743.631C1513.1 750.266 1502.82 754.824 1491.92 757.732C1456.21 767.254 1413.62 760.231 1382.79 744.911C1351.95 729.594 1331.24 707.136 1315.49 684.051C1309.17 674.796 1303.21 665.044 1291.93 658.069C1280.65 651.094 1262.17 647.833 1249.55 653.648C1234.43 660.61 1235.93 675.768 1243.43 686.871C1272.54 729.987 1360.86 749.268 1378.82 794.863C1388.66 819.855 1374.02 845.672 1363.04 870.382C1335.3 932.814 1330.41 999.595 1348.89 1063.64L1285.6 1003.91L1285.6 1003.91Z" fill="#BC6C25"/>
<path d="M1533.89 628.62C1511.43 642.089 1488.97 655.558 1466.5 669.029C1460.59 672.573 1454.08 676.297 1446.07 676.794C1432.04 677.662 1421.62 668.557 1415.51 660.24C1403.93 644.49 1396.53 627.54 1384.6 611.904C1372.66 596.268 1354.98 581.457 1330.14 574.955C1310.51 569.815 1287.75 570.201 1269.68 563.014C1253.63 556.63 1243.93 545.312 1235.84 534.242C1226.81 521.872 1218.77 508.878 1217.37 495.231C1215.96 481.583 1222.09 467.054 1237.65 457.953C1257.97 446.064 1289.9 446.101 1314.92 453.438C1339.94 460.774 1359.55 474.082 1378.1 487.288C1396.64 500.494 1415.32 514.197 1439.44 522.735C1465.82 532.078 1498.12 535.044 1519.46 548.836C1537.63 560.588 1544.16 578.337 1542.51 594.945C1540.87 611.553 1532.02 627.422 1523.26 643.025L1533.88 628.617L1533.89 628.62Z" fill="#BC6C25"/>
<path d="M1042.54 279.402C1049.73 284.104 1047.68 291.786 1046.43 298.349C1044.13 310.396 1046.42 322.816 1053.01 334.204C1061.16 348.286 1075.67 360.645 1082.33 375.055C1088.98 389.461 1084.55 408.044 1063.88 414.597C1047.72 419.718 1027.9 415.466 1013.27 408.556C998.631 401.651 987.007 392.297 972.296 385.471C955.083 377.488 933.851 373.359 912.82 373.648C896.156 373.876 885.326 361.911 894.45 352.845C894.67 352.625 894.902 352.407 895.142 352.192C906.783 341.733 930.445 342.514 949.582 339.119C973.009 334.967 992.581 322.691 999.87 307.588C1003.6 299.851 1004.41 291.337 1011.04 284.491C1017.67 277.641 1033.73 273.639 1042.55 279.405L1042.54 279.402Z" fill="#BC6C25"/>
</g>
</svg>
