<svg width="427" height="46" viewBox="0 0 427 46" fill="none" xmlns="http://www.w3.org/2000/svg">
<path d="M33.3 22.95C37.4251 22.95 40.2001 26.55 40.2001 31.8C40.2001 37.125 34.9501 45.15 21.15 45.15C8.92505 45.15 4.88851e-05 38.325 4.88851e-05 22.575C4.88851e-05 6.82505 8.40005 4.57168e-05 21.15 4.57168e-05C30.3001 4.57168e-05 37.7251 3.90004 37.7251 10.8C37.7251 17.4 33.975 20.025 29.9251 20.025C22.2751 20.025 23.6251 9.82505 20.1 9.82505C14.8501 9.82505 13.7251 29.4 21.675 29.4C25.5 29.4 27.9 22.95 33.3 22.95ZM64.377 4.57168e-05C77.277 4.57168e-05 86.127 6.82505 86.127 22.575C86.127 38.325 77.277 45.15 64.377 45.15C51.477 45.15 42.627 38.325 42.627 22.575C42.627 6.82505 51.477 4.57168e-05 64.377 4.57168e-05ZM64.377 34.35C67.677 34.35 69.552 28.725 69.552 22.575C69.552 16.425 67.677 10.8 64.377 10.8C61.002 10.8 59.202 16.425 59.202 22.575C59.202 28.725 61.002 34.35 64.377 34.35ZM121.702 0.675046C128.002 0.675046 131.602 3.90004 131.602 11.925V34.8C131.602 41.175 128.002 44.55 122.227 44.55H117.652C114.502 44.55 111.502 43.35 109.627 40.2L99.3516 22.05V29.4C99.3516 36.975 105.652 39.225 105.652 42C105.652 43.575 104.602 44.55 102.727 44.55H91.3266C89.4516 44.55 88.4016 43.575 88.4016 42C88.4016 39.9 89.4516 39 89.4516 32.85V12.375C89.4516 6.22505 88.4016 5.32505 88.4016 3.22505C88.4016 1.57505 89.4516 0.675046 91.3266 0.675046H100.927C104.377 0.675046 106.402 2.32505 107.827 5.02505L119.377 25.5C120.577 27.6 122.902 27.375 122.902 24.45C122.902 21.075 118.177 16.125 115.552 13.125C110.602 7.35005 113.452 0.675046 121.702 0.675046ZM154.058 9.82505C151.733 9.82505 150.233 13.5 149.858 19.2H150.383C153.158 19.2 155.408 17.625 158.183 17.625C160.433 17.625 161.333 18.675 161.333 21.45V23.7C161.333 26.475 160.433 27.525 158.183 27.525C155.408 27.525 153.158 25.95 150.383 25.95H149.858C150.233 31.65 151.733 35.325 154.058 35.325C157.133 35.325 157.733 27 164.633 27C168.833 27 171.683 30.375 171.683 35.55C171.683 42.825 165.383 45.15 156.233 45.15C143.483 45.15 133.958 40.275 133.958 22.575C133.958 4.87505 143.483 4.57168e-05 156.233 4.57168e-05C165.383 4.57168e-05 171.683 2.25005 171.683 9.60005C171.683 14.775 168.833 18.15 164.633 18.15C157.733 18.15 157.133 9.82505 154.058 9.82505ZM205.492 22.95C209.617 22.95 212.392 26.55 212.392 31.8C212.392 37.125 207.142 45.15 193.342 45.15C181.117 45.15 172.192 38.325 172.192 22.575C172.192 6.82505 180.592 4.57168e-05 193.342 4.57168e-05C202.492 4.57168e-05 209.917 3.90004 209.917 10.8C209.917 17.4 206.167 20.025 202.117 20.025C194.467 20.025 195.817 9.82505 192.292 9.82505C187.042 9.82505 185.917 29.4 193.867 29.4C197.692 29.4 200.092 22.95 205.492 22.95ZM241.422 1.72505H253.122C254.697 1.72505 255.672 2.85004 255.672 4.65005V13.875C255.672 15.75 254.697 16.8 253.122 16.8C250.422 16.8 246.822 14.7 242.022 14.7V31.8C242.022 37.95 243.072 39.9 243.072 42C243.072 43.575 242.022 44.55 240.147 44.55H228.072C226.272 44.55 225.147 43.575 225.147 42C225.147 39.9 226.272 37.95 226.272 31.8V14.7C221.397 14.7 217.797 16.8 215.097 16.8C213.522 16.8 212.547 15.75 212.547 13.875V4.65005C212.547 2.85004 213.522 1.72505 215.097 1.72505H226.797C231.972 1.72505 233.472 3.67505 234.147 7.95005C234.747 3.67505 236.322 1.72505 241.422 1.72505ZM279.331 44.55C277.531 44.55 276.181 43.575 275.731 42C275.431 40.65 275.506 39.375 275.206 37.05C272.956 41.775 267.706 44.55 263.131 44.55C255.781 44.55 253.606 39 255.781 32.325L263.881 6.82505C265.231 2.62505 267.031 0.675046 271.081 0.675046H277.081C281.281 0.675046 282.406 2.77505 283.456 6.82505L289.981 31.8C291.556 37.95 293.131 39.9 293.656 42C294.106 43.575 293.281 44.55 291.406 44.55H279.331ZM267.856 25.875C266.281 30.825 268.756 33.225 273.631 29.85L270.481 17.55L267.856 25.875ZM329.343 0.675046C335.643 0.675046 339.243 3.90004 339.243 11.925V34.8C339.243 41.175 335.643 44.55 329.868 44.55H325.293C322.143 44.55 319.143 43.35 317.268 40.2L306.993 22.05V29.4C306.993 36.975 313.293 39.225 313.293 42C313.293 43.575 312.243 44.55 310.368 44.55H298.968C297.093 44.55 296.043 43.575 296.043 42C296.043 39.9 297.093 39 297.093 32.85V12.375C297.093 6.22505 296.043 5.32505 296.043 3.22505C296.043 1.57505 297.093 0.675046 298.968 0.675046H308.568C312.018 0.675046 314.043 2.32505 315.468 5.02505L327.018 25.5C328.218 27.6 330.543 27.375 330.543 24.45C330.543 21.075 325.818 16.125 323.193 13.125C318.243 7.35005 321.093 0.675046 329.343 0.675046ZM361.775 0.675046C376.7 0.675046 380.15 11.025 380.15 22.575C380.15 34.2 376.7 44.55 361.775 44.55H344.6C342.725 44.55 341.675 43.575 341.675 42C341.675 39.9 342.725 38.85 342.725 32.7C342.725 27.6 344.675 23.25 349.025 22.575C344.675 21.975 342.725 17.625 342.725 12.525C342.725 6.37505 341.675 5.32505 341.675 3.22505C341.675 1.57505 342.725 0.675046 344.6 0.675046H361.775ZM358.475 35.775C361.4 35.775 364.4 30.675 364.4 22.575C364.4 14.475 361.4 9.45005 358.475 9.45005V35.775ZM404.294 4.57168e-05C417.194 4.57168e-05 426.044 6.82505 426.044 22.575C426.044 38.325 417.194 45.15 404.294 45.15C391.394 45.15 382.544 38.325 382.544 22.575C382.544 6.82505 391.394 4.57168e-05 404.294 4.57168e-05ZM404.294 34.35C407.594 34.35 409.469 28.725 409.469 22.575C409.469 16.425 407.594 10.8 404.294 10.8C400.919 10.8 399.119 16.425 399.119 22.575C399.119 28.725 400.919 34.35 404.294 34.35Z" fill="#BC6D24"/>
</svg>
