<svg width="84" height="79" viewBox="0 0 84 79" fill="none" xmlns="http://www.w3.org/2000/svg">
<path d="M19.4959 14.8496C19.4959 17.3379 17.0408 21.0848 10.5954 21.0848C4.88602 21.0848 0.717529 17.8954 0.717529 10.5453C0.717529 3.19519 4.63878 0 10.5954 0C14.8674 0 18.3402 1.82172 18.3402 5.04564C18.3402 8.26957 16.5865 9.3557 14.6949 9.3557C11.1186 9.3557 11.7511 4.59165 10.1067 4.59165C7.6516 4.59165 7.12838 13.7347 10.8426 13.7347C12.6308 13.7347 13.752 10.7234 16.2761 10.7234C18.2022 10.7234 19.5016 12.4072 19.5016 14.8553L19.4959 14.8496Z" fill="#616D37"/>
<path d="M20.6574 33.6817V44.3592C20.6574 47.336 18.9786 48.9106 16.2762 48.9106H14.1374C12.6654 48.9106 11.2625 48.3532 10.3886 46.882L5.58764 38.4056V41.8364C5.58764 45.3706 8.53146 46.4223 8.53146 47.721C8.53146 48.4566 8.04274 48.9106 7.16304 48.9106H1.83887C0.964928 48.9106 0.470459 48.4566 0.470459 47.721C0.470459 46.7383 0.959178 46.3188 0.959178 43.4512V33.8886C0.959178 31.0152 0.470459 30.5957 0.470459 29.6188C0.470459 28.8487 0.959178 28.4292 1.83887 28.4292H6.32359C7.93349 28.4292 8.88218 29.1993 9.54914 30.4578L14.9423 40.0204C15.5 41.0031 16.5867 40.8939 16.5867 39.5319C16.5867 37.9573 14.3788 35.6471 13.1542 34.2449C10.8428 31.5497 12.171 28.4292 16.029 28.4292C18.9728 28.4292 20.6517 29.9348 20.6517 33.6817H20.6574Z" fill="#616D37"/>
<path d="M29.1668 37.3941H29.4141C30.7077 37.3941 31.7599 36.6585 33.0593 36.6585C34.1115 36.6585 34.5312 37.147 34.5312 38.4458V39.4974C34.5312 40.7904 34.1115 41.2847 33.0593 41.2847C31.7657 41.2847 30.7135 40.5491 29.4141 40.5491H29.1668C29.3393 43.2098 30.0408 44.9281 31.1274 44.9281C32.5649 44.9281 32.8466 41.0433 36.0664 41.0433C38.027 41.0433 39.3609 42.6179 39.3609 45.0373C39.3609 48.4336 36.4171 49.5197 32.1451 49.5197C26.1885 49.5197 21.7383 47.244 21.7383 38.9802C21.7383 30.7164 26.1885 28.4407 32.1451 28.4407C36.4171 28.4407 39.3609 29.4923 39.3609 32.9231C39.3609 35.3368 38.027 36.9171 36.0664 36.9171C32.8408 36.9171 32.5649 33.0323 31.1274 33.0323C30.0408 33.0323 29.3393 34.7506 29.1668 37.4113V37.3941Z" fill="#616D37"/>
<path d="M58.3865 43.2787C58.3865 45.767 55.9314 49.5139 49.486 49.5139C43.7766 49.5139 39.6082 46.3302 39.6082 38.9743C39.6082 31.6185 43.5294 28.4348 49.486 28.4348C53.758 28.4348 57.2308 30.2565 57.2308 33.4747C57.2308 36.6929 55.4772 37.7848 53.5855 37.7848C50.0093 37.7848 50.6417 33.0207 48.9973 33.0207C46.5422 33.0207 46.019 42.158 49.7333 42.158C51.5214 42.158 52.6426 39.1467 55.1667 39.1467C57.0928 39.1467 58.3922 40.8248 58.3922 43.2787H58.3865Z" fill="#616D37"/>
<path d="M77.412 28.4292C78.148 28.4292 78.6022 28.9522 78.6022 29.7969V34.1012C78.6022 34.9747 78.148 35.469 77.412 35.469C76.1528 35.469 74.4682 34.4863 72.2258 34.4863V42.4685C72.2258 45.3419 72.7146 46.2499 72.7146 47.2326C72.7146 47.9681 72.2258 48.4221 71.3461 48.4221H65.7058C64.8663 48.4221 64.3373 47.9681 64.3373 47.2326C64.3373 46.2499 64.8606 45.3419 64.8606 42.4685V34.4863C62.5837 34.4863 60.8991 35.469 59.6399 35.469C58.9039 35.469 58.4497 34.9805 58.4497 34.1012V29.7969C58.4497 28.9579 58.9039 28.4292 59.6399 28.4292H65.1078C67.5226 28.4292 68.2241 29.3372 68.5403 31.3371C68.8221 29.3429 69.558 28.4292 71.9384 28.4292H77.4063H77.412Z" fill="#616D37"/>
<path d="M10.3655 77.4661C10.216 76.7938 10.2505 76.1559 10.101 74.995C8.97981 77.3512 6.35797 78.7362 4.06961 78.7362C0.401342 78.7362 -0.68534 75.9662 0.401342 72.6331L4.44334 59.9098C5.11605 57.8123 6.01874 56.8411 8.03687 56.8411H11.0324C13.131 56.8411 13.6888 57.887 14.2177 59.9098L17.4778 72.3745C18.2655 75.4433 19.0532 76.4145 19.3119 77.4661C19.5361 78.2534 19.1222 78.7362 18.1907 78.7362H12.1594C11.2624 78.7362 10.5897 78.2477 10.3597 77.4661H10.3655ZM9.31903 71.4033L7.74938 65.2658L6.43847 69.4207C5.65076 71.8918 6.88694 73.0871 9.31903 71.4033Z" fill="#616D37"/>
<path d="M42.0806 62.4558V73.8688C42.0806 77.0525 40.2809 78.7363 37.4004 78.7363H35.1178C33.5481 78.7363 32.0475 78.1386 31.1103 76.564L25.9816 67.5072V71.1736C25.9816 74.9549 29.1266 76.0756 29.1266 77.4605C29.1266 78.2478 28.6034 78.7305 27.6662 78.7305H21.9741C21.0369 78.7305 20.5137 78.2421 20.5137 77.4605C20.5137 76.4146 21.0369 75.9664 21.0369 72.8919V62.6741C21.0369 59.6054 20.5137 59.1571 20.5137 58.1055C20.5137 57.2837 21.0369 56.8354 21.9741 56.8354H26.7693C28.4942 56.8354 29.5004 57.6572 30.2133 59.0077L35.9802 69.2254C36.5782 70.2713 37.7396 70.1622 37.7396 68.7025C37.7396 67.0187 35.3822 64.5476 34.0713 63.0534C31.599 60.1743 33.0249 56.8412 37.1416 56.8412C40.2867 56.8412 42.0863 58.4503 42.0863 62.4558H42.0806Z" fill="#616D37"/>
<path d="M62.4918 67.7714C62.4918 73.5698 60.7669 78.7362 53.3154 78.7362H44.7426C43.8054 78.7362 43.2822 78.2477 43.2822 77.4661C43.2822 76.4202 43.8054 75.8915 43.8054 72.8228C43.8054 70.277 44.7771 68.1047 46.9505 67.7714C44.7771 67.4725 43.8054 65.3003 43.8054 62.7545C43.8054 59.6857 43.2822 59.1627 43.2822 58.1111C43.2822 57.2893 43.8054 56.8411 44.7426 56.8411H53.3154C60.7669 56.8411 62.4918 62.0074 62.4918 67.7714ZM54.6263 67.7714C54.6263 63.7314 53.1314 61.2201 51.671 61.2201V74.3571C53.1314 74.3571 54.6263 71.8113 54.6263 67.7714Z" fill="#616D37"/>
<path d="M29.7879 0C23.676 0 19.4788 3.23542 19.4788 10.6947C19.4788 18.154 23.676 21.3894 29.7879 21.3894C35.8997 21.3894 40.097 18.154 40.097 10.6947C40.097 3.23542 35.9055 0 29.7879 0ZM25.7114 6.70071C25.8781 6.66048 26.0506 6.65473 26.2231 6.68921C26.4186 6.72944 26.6083 6.7984 26.7866 6.8846C26.982 6.97655 27.1833 7.04551 27.3903 7.10298C27.4593 7.12022 27.5283 7.13746 27.5973 7.14895C27.6375 7.05701 27.672 6.96506 27.695 6.86736C27.7467 6.66048 27.7927 6.44785 27.8042 6.23522C27.8157 6.03408 27.8445 5.8387 27.9135 5.64905C27.971 5.4824 28.0572 5.33873 28.178 5.2123C28.1952 5.19506 28.2182 5.17782 28.2355 5.16058C28.2355 5.16058 28.2412 5.16058 28.247 5.16633C28.247 5.17782 28.2412 5.19506 28.2297 5.20655C28.201 5.25253 28.178 5.30425 28.178 5.36172C28.178 5.45366 28.1722 5.54561 28.1722 5.63756C28.1722 5.85594 28.1895 6.07431 28.2182 6.29269C28.2412 6.43636 28.2585 6.58003 28.27 6.71795C28.2757 6.82139 28.27 6.92483 28.2642 7.02253C28.247 7.16045 28.201 7.28688 28.0917 7.38457C28.0342 7.43629 27.971 7.47077 27.9077 7.48801C27.856 7.59145 27.7697 7.66616 27.649 7.70639C27.511 7.75236 27.3788 7.72938 27.2523 7.67765C27.1603 7.63743 27.0683 7.59145 26.982 7.53399C26.8613 7.45353 26.7521 7.36733 26.6371 7.27538C26.4646 7.13746 26.2806 7.01678 26.0908 6.90759C26.0104 6.86162 25.9299 6.82139 25.8436 6.77542C25.7919 6.74668 25.7401 6.74668 25.6826 6.74668C25.6711 6.74668 25.6539 6.74668 25.6424 6.74093C25.6424 6.74093 25.6424 6.73519 25.6424 6.72944C25.6654 6.72369 25.6941 6.7122 25.7171 6.70645L25.7114 6.70071ZM38.924 11.4992C38.7171 11.4245 38.5043 11.3613 38.2801 11.3901C37.9121 11.436 37.5384 11.4763 37.1704 11.5337C36.2907 11.6659 35.434 11.8785 34.5888 12.1429C34.0369 12.3153 33.4849 12.4934 32.9214 12.6256C32.5189 12.7176 32.105 12.7693 31.6967 12.7865C31.2943 12.8095 30.9033 12.7578 30.5526 12.5911C30.5411 12.9417 30.4318 13.2865 30.2651 13.6083C30.0753 13.9761 29.8626 14.3324 29.6154 14.66C29.2646 15.1197 28.8794 15.5507 28.4999 15.9875C27.9135 16.6541 27.3673 17.3494 26.89 18.0965C26.6888 18.4126 26.4991 18.7286 26.3093 19.0505C26.1943 19.2459 26.1656 19.4585 26.1483 19.6826C26.1483 19.7401 26.1253 19.7975 26.1081 19.8493C26.0908 19.8493 26.0736 19.8493 26.0621 19.8493C26.0334 19.7458 26.0046 19.6481 25.9816 19.5389C25.8609 18.8493 25.8896 18.1655 26.0621 17.4874C26.2633 16.7 26.5911 15.976 26.9878 15.2749C27.4133 14.5163 27.7295 13.7175 28.0112 12.8957C28.155 12.4762 28.27 12.0509 28.3275 11.6084C28.3275 11.5969 28.3275 11.5912 28.3332 11.5797C28.0342 11.436 27.7237 11.3211 27.4075 11.2177C26.5796 10.9533 25.9356 11.4418 25.0732 11.3326C24.274 11.2349 23.3023 10.3556 22.5548 10.0511C21.9051 9.78671 21.3416 9.40168 20.8587 8.89022C20.7839 8.81551 20.7264 8.72931 20.6574 8.64311C20.6689 8.63161 20.6747 8.61437 20.6862 8.60288C20.7379 8.62587 20.7954 8.64311 20.8472 8.67184C20.8529 8.67184 20.8587 8.67759 20.8644 8.68334C20.8127 8.62587 20.7667 8.56265 20.7207 8.50519C20.7322 8.49369 20.7379 8.47645 20.7494 8.46496C20.8012 8.48795 20.8587 8.50519 20.9104 8.53392C21.0944 8.6546 21.2899 8.75804 21.5141 8.78103C21.8821 8.81551 22.2558 8.85574 22.6238 8.88447C23.5093 8.94769 24.3947 8.9247 25.2744 8.84999C25.8494 8.80402 26.4301 8.7523 27.005 8.7408C27.4133 8.7408 27.833 8.78103 28.2355 8.84999C28.3275 8.86723 28.4195 8.88447 28.5114 8.90746C28.5402 8.6546 28.6149 8.40174 28.7184 8.16038C28.8794 7.7811 29.0692 7.40756 29.2934 7.06275C29.6096 6.58003 29.9661 6.12029 30.3168 5.66055C30.8515 4.9537 31.346 4.22386 31.7715 3.4423C31.9497 3.11474 32.1165 2.78143 32.2832 2.45386C32.3867 2.25272 32.3982 2.03435 32.3982 1.81597C32.3982 1.7585 32.4155 1.70104 32.427 1.64357C32.4442 1.64357 32.4614 1.64357 32.4729 1.64357C32.4902 1.70104 32.5132 1.7585 32.5304 1.81597C32.5304 1.80448 32.5362 1.78724 32.5362 1.77574C32.5534 1.77574 32.5707 1.77574 32.5822 1.77574C32.6167 1.87344 32.6569 1.97688 32.6799 2.07458C32.8524 2.75269 32.8697 3.43655 32.7432 4.12616C32.5994 4.92496 32.8122 6.21223 32.4672 6.94207C32.0935 7.72938 31.3403 8.01097 31.116 8.84424C31.001 9.27525 30.9148 9.70626 30.8918 10.1488C30.8918 10.189 30.8803 10.2235 30.8688 10.2579C31.2253 10.3441 31.5818 10.4016 31.9497 10.4303C32.8122 10.5051 33.6746 10.5453 34.5428 10.4648C35.342 10.3901 36.147 10.3844 36.9462 10.5165C37.6419 10.6372 38.2743 10.8901 38.855 11.2809C38.9413 11.3383 39.0218 11.413 39.1023 11.4763C39.0965 11.4935 39.0908 11.505 39.085 11.5222C39.0275 11.5107 38.97 11.5107 38.9125 11.4877L38.924 11.4992Z" fill="#616D37"/>
<path d="M73.6345 57.5479C67.5227 57.5479 63.3254 60.7833 63.3254 68.2425C63.3254 75.7018 67.5227 78.9372 73.6345 78.9372C79.7464 78.9372 83.9437 75.7018 83.9437 68.2425C83.9437 60.7833 79.7522 57.5479 73.6345 57.5479ZM69.5523 64.2543C69.719 64.2141 69.8915 64.2083 70.064 64.2428C70.2595 64.283 70.4492 64.352 70.6275 64.4382C70.823 64.5301 71.0242 64.5991 71.2312 64.6566C71.3002 64.6738 71.3692 64.6911 71.4382 64.7025C71.4784 64.6106 71.5129 64.5187 71.5359 64.421C71.5877 64.2141 71.6337 64.0014 71.6452 63.7888C71.6567 63.5877 71.6854 63.3923 71.7544 63.2026C71.8119 63.036 71.8982 62.8923 72.0189 62.7659C72.0361 62.7487 72.0591 62.7314 72.0764 62.7142C72.0764 62.7142 72.0821 62.7142 72.0879 62.7199C72.0879 62.7314 72.0821 62.7487 72.0706 62.7602C72.0419 62.8061 72.0189 62.8578 72.0189 62.9153C72.0189 63.0073 72.0131 63.0992 72.0131 63.1912C72.0131 63.4095 72.0304 63.6279 72.0591 63.8463C72.0821 63.99 72.0994 64.1336 72.1109 64.2715C72.1166 64.375 72.1109 64.4784 72.1051 64.5761C72.0879 64.714 72.0419 64.8405 71.9327 64.9382C71.8752 64.9899 71.8119 65.0244 71.7487 65.0416C71.6969 65.1451 71.6107 65.2198 71.4899 65.26C71.3519 65.306 71.2197 65.283 71.0932 65.2313C71.0012 65.191 70.9092 65.1451 70.823 65.0876C70.7022 65.0071 70.593 64.9209 70.478 64.829C70.3055 64.6911 70.1215 64.5704 69.9318 64.4612C69.8513 64.4152 69.7708 64.375 69.6845 64.329C69.6328 64.3003 69.581 64.3003 69.5236 64.3003C69.5121 64.3003 69.4948 64.3003 69.4833 64.2945C69.4833 64.2945 69.4833 64.2888 69.4833 64.283C69.5063 64.2773 69.535 64.2658 69.558 64.2601L69.5523 64.2543ZM82.765 69.0471C82.558 68.9724 82.3453 68.9092 82.121 68.9379C81.753 68.9839 81.3793 69.0241 81.0113 69.0816C80.1316 69.2137 79.2749 69.4264 78.4297 69.6907C77.8778 69.8631 77.3258 70.0413 76.7623 70.1735C76.3599 70.2654 75.9459 70.3171 75.5377 70.3344C75.1352 70.3573 74.7442 70.3056 74.3935 70.139C74.382 70.4895 74.2728 70.8343 74.106 71.1561C73.9163 71.5239 73.7035 71.8802 73.4563 72.2078C73.1056 72.6675 72.7204 73.0985 72.3409 73.5353C71.7544 74.2019 71.2082 74.8973 70.731 75.6444C70.5297 75.9604 70.34 76.2765 70.1503 76.5983C70.0353 76.7937 70.0065 77.0063 69.9893 77.2305C69.9893 77.2879 69.9663 77.3454 69.949 77.3971C69.9318 77.3971 69.9145 77.3971 69.903 77.3971C69.8743 77.2937 69.8455 77.196 69.8225 77.0868C69.7018 76.3972 69.7305 75.7133 69.903 75.0352C70.1043 74.2479 70.432 73.5238 70.8287 72.8227C71.2542 72.0641 71.5704 71.2653 71.8522 70.4435C71.9959 70.024 72.1109 69.5988 72.1684 69.1563C72.1684 69.1448 72.1684 69.139 72.1741 69.1275C71.8752 68.9839 71.5647 68.8689 71.2484 68.7655C70.4205 68.5011 69.7765 68.9896 68.9141 68.8804C68.1149 68.7827 67.1432 67.9035 66.3957 67.5989C65.746 67.3346 65.1826 66.9495 64.6996 66.4381C64.6249 66.3634 64.5674 66.2772 64.4984 66.191C64.5099 66.1795 64.5156 66.1622 64.5271 66.1507C64.5789 66.1737 64.6364 66.191 64.6881 66.2197C64.6939 66.2197 64.6996 66.2254 64.7054 66.2312C64.6536 66.1737 64.6076 66.1105 64.5616 66.053C64.5731 66.0415 64.5789 66.0243 64.5904 66.0128C64.6421 66.0358 64.6996 66.053 64.7514 66.0818C64.9353 66.2025 65.1308 66.3059 65.3551 66.3289C65.723 66.3634 66.0968 66.4036 66.4647 66.4323C67.3502 66.4955 68.2356 66.4725 69.1153 66.3978C69.6903 66.3519 70.271 66.3001 70.846 66.2887C71.2542 66.2887 71.6739 66.3289 72.0764 66.3978C72.1684 66.4151 72.2604 66.4323 72.3524 66.4553C72.3811 66.2025 72.4559 65.9496 72.5594 65.7082C72.7204 65.3289 72.9101 64.9554 73.1343 64.6106C73.4506 64.1279 73.807 63.6681 74.1578 63.2084C74.6925 62.5015 75.1869 61.7717 75.6124 60.9902C75.7907 60.6626 75.9574 60.3293 76.1241 60.0017C76.2276 59.8006 76.2391 59.5822 76.2391 59.3638C76.2391 59.3064 76.2564 59.2489 76.2679 59.1914C76.2851 59.1914 76.3024 59.1914 76.3139 59.1914C76.3311 59.2489 76.3541 59.3064 76.3714 59.3638C76.3714 59.3523 76.3771 59.3351 76.3771 59.3236C76.3944 59.3236 76.4116 59.3236 76.4231 59.3236C76.4576 59.4213 76.4979 59.5247 76.5209 59.6224C76.6934 60.3005 76.7106 60.9844 76.5841 61.674C76.4404 62.4728 76.6531 63.7601 76.3081 64.4899C75.9344 65.2772 75.1812 65.5588 74.957 66.3921C74.842 66.8231 74.7557 67.2541 74.7327 67.6966C74.7327 67.7368 74.7212 67.7713 74.7097 67.8058C75.0662 67.892 75.4227 67.9495 75.7907 67.9782C76.6531 68.0529 77.5156 68.0931 78.3837 68.0127C79.1829 67.938 79.9879 67.9322 80.7871 68.0644C81.4828 68.1851 82.1153 68.4379 82.696 68.8287C82.7822 68.8862 82.8627 68.9609 82.9432 69.0241C82.9375 69.0413 82.9317 69.0528 82.926 69.0701C82.8685 69.0586 82.811 69.0586 82.7535 69.0356L82.765 69.0471Z" fill="#616D37"/>
</svg>
