<?xml version="1.0" encoding="UTF-8"?>
<svg id="Capa_2" data-name="Capa 2" xmlns="http://www.w3.org/2000/svg" viewBox="0 0 148.92 124.61">
  <defs>
    <style>
      .cls-1 {
        fill: #dda25d;
      }

      .cls-2 {
        fill: #bc6d24;
      }
    </style>
  </defs>
  <g id="Capa_1-2" data-name="Capa 1">
    <g>
      <path class="cls-1" d="M138.83,1.87c-.18,1-.3,2.02-.56,3.01-1.71,6.53-4.7,12.39-8.96,17.66-4.91,6.07-9.06,17.96-15.35,22.5-6.78,4.9-14.47,3.79-20.23,9.84-2.95,3.1-5.68,6.37-7.96,9.98-1.12,1.77-2.93,1.93-4.57,2.51-1.39.49-2.86.72-4.28,1.13-1.58.46-2.86.06-4-1.12-4.06-4.18-5.16-9.21-4.3-14.8.85-5.55,4.08-9.68,8.29-13.01,3.11-2.46,6.42-4.75,9.91-6.62,4.91-2.62,10.03-4.85,15.12-7.12,7.8-3.47,15.37-7.38,22.56-12,3.01-1.94,5.96-3.98,8.92-6,1.8-1.23,2.92-3.01,3.95-4.87.27-.48.68-.88,1.02-1.32.14.07.28.14.42.21Z"/>
      <path class="cls-1" d="M6.25,4.71c.18,1,.3,2.02.56,3.01,1.71,6.53,4.7,12.39,8.96,17.66,4.91,6.07,9.06,17.96,15.35,22.5,6.78,4.9,14.47,3.79,20.23,9.84,2.95,3.1,5.68,6.37,7.96,9.98,1.12,1.77,2.93,1.93,4.57,2.51,1.39.49,2.86.72,4.28,1.13,1.58.46,2.86.06,4-1.12,4.06-4.18,5.16-9.21,4.3-14.8-.85-5.55-4.08-9.68-8.29-13.01-3.11-2.46-6.42-4.75-9.91-6.62-4.91-2.62-10.03-4.85-15.12-7.12-7.8-3.47-15.37-7.38-22.56-12-3.01-1.94-5.96-3.98-8.92-6-1.8-1.23-2.92-3.01-3.95-4.87-.27-.48-.68-.88-1.02-1.32-.14.07-.28.14-.42.21Z"/>
      <g>
        <path class="cls-1" d="M57.16,11.5c.25.05.5.08.74.15,1.62.44,3.06,1.2,4.36,2.27,1.49,1.23,2.73,2.7,3.84,4.27,1.2,1.7,2.61,3.2,4.1,4.64.76.74,1.57,1.43,2.46,2,.44.28.47.73.61,1.14.12.35.17.71.27,1.06.11.39,0,.71-.29.99-1.05,1-2.3,1.26-3.68,1.03-1.37-.22-2.39-1.04-3.21-2.09-.6-.78-1.16-1.61-1.62-2.48-.64-1.22-1.18-2.5-1.73-3.77-.84-1.95-1.79-3.83-2.92-5.63-.47-.75-.97-1.49-1.47-2.23-.3-.45-.74-.73-1.2-.99-.12-.07-.22-.17-.33-.26.02-.03.04-.07.05-.1Z"/>
        <path class="cls-1" d="M86.31,10.25c-.25.06-.5.11-.74.18-1.59.52-3,1.35-4.24,2.48-1.43,1.31-2.59,2.83-3.63,4.45-1.11,1.75-2.45,3.33-3.86,4.84-.73.78-1.49,1.5-2.35,2.12-.42.3-.44.76-.56,1.17-.1.35-.14.72-.22,1.08-.09.4.03.71.34.97,1.1.94,2.36,1.14,3.73.85,1.36-.29,2.34-1.15,3.1-2.25.56-.81,1.08-1.66,1.49-2.55.58-1.26,1.05-2.56,1.54-3.85.74-1.98,1.6-3.92,2.64-5.77.44-.78.9-1.53,1.35-2.3.28-.46.7-.77,1.15-1.05.12-.07.21-.18.31-.27-.02-.03-.04-.07-.06-.1Z"/>
      </g>
      <g>
        <path class="cls-2" d="M148.92,114.09c-.4-.94-.74-1.91-1.2-2.81-3.09-6-7.28-11.07-12.58-15.29-6.11-4.86-12.91-8.51-20.03-11.57-7.69-3.31-14.79-7.61-21.72-12.26-3.56-2.39-6.93-4.98-9.94-8.01-1.48-1.49-3.28-1.25-5.01-1.46-1.46-.18-2.95-.09-4.42-.18-1.65-.1-2.8.56-3.66,1.96-3.05,4.96-3.03,10.11-.98,15.38,2.03,5.23,6.08,8.56,10.92,10.89,3.57,1.72,7.3,3.24,11.12,4.3,5.36,1.49,10.85,2.56,16.31,3.66,8.37,1.69,16.61,3.86,24.63,6.8,3.36,1.24,6.68,2.59,10.01,3.91,2.02.8,3.51,2.3,4.92,3.9.36.41.85.72,1.28,1.07.12-.1.24-.2.36-.3Z"/>
        <path class="cls-2" d="M7.4,3.81c.18,1,.3,2.02.56,3.01,1.71,6.53,4.7,12.39,8.96,17.66,4.91,6.07,9.06,17.96,15.35,22.5,6.78,4.9,14.47,3.79,20.23,9.84,2.95,3.1,5.68,6.37,7.96,9.98,1.12,1.77,2.93,1.93,4.57,2.51,1.39.49,2.86.72,4.28,1.13,1.58.46,2.86.06,4-1.12,4.06-4.18,5.16-9.21,4.3-14.8-.85-5.55-4.08-9.68-8.29-13.01-3.11-2.46-6.42-4.75-9.91-6.62-4.91-2.62-10.03-4.85-15.12-7.12-7.8-3.47-15.37-7.38-22.56-12-3.01-1.94-5.96-3.98-8.92-6-1.8-1.23-2.92-3.01-3.95-4.87-.27-.48-.68-.88-1.02-1.32-.14.07-.28.14-.42.21Z"/>
        <path class="cls-2" d="M138.45.21c-.18,1-.3,2.02-.56,3.01-1.71,6.53-4.7,12.39-8.96,17.66-4.91,6.07-9.06,17.96-15.35,22.5-6.78,4.9-14.47,3.79-20.23,9.84-2.95,3.1-5.68,6.37-7.96,9.98-1.12,1.77-2.93,1.93-4.57,2.51-1.39.49-2.86.72-4.28,1.13-1.58.46-2.86.06-4-1.12-4.06-4.18-5.16-9.21-4.3-14.8.85-5.55,4.08-9.68,8.29-13.01,3.11-2.46,6.42-4.75,9.91-6.62,4.91-2.62,10.03-4.85,15.12-7.12,7.8-3.47,15.37-7.38,22.56-12,3.01-1.94,5.96-3.98,8.92-6,1.8-1.23,2.92-3.01,3.95-4.87.27-.48.68-.88,1.02-1.32.14.07.28.14.42.21Z"/>
        <path class="cls-2" d="M0,124.37c.25-.99.44-2,.77-2.96,2.16-6.39,5.56-12.03,10.17-16.99,5.32-5.71,11.5-10.33,18.09-14.42,7.11-4.42,13.5-9.72,19.66-15.35,3.16-2.89,6.11-5.95,8.63-9.4,1.24-1.69,3.06-1.72,4.74-2.19,1.42-.39,2.9-.52,4.35-.83,1.61-.35,2.85.14,3.91,1.39,3.75,4.45,4.5,9.55,3.26,15.06-1.23,5.47-4.74,9.37-9.18,12.39-3.28,2.23-6.74,4.29-10.35,5.91-5.08,2.27-10.35,4.14-15.58,6.05-8.03,2.92-15.85,6.28-23.34,10.39-3.14,1.72-6.22,3.56-9.31,5.36-1.88,1.1-3.13,2.8-4.28,4.58-.3.46-.74.83-1.11,1.25-.13-.08-.27-.16-.4-.24Z"/>
      </g>
    </g>
  </g>
</svg>